<?xml version="1.0" encoding="iso-8859-1"?>
<!-- Generator: Adobe Illustrator 19.0.0, SVG Export Plug-In . SVG Version: 6.00 Build 0)  -->
<svg version="1.1" id="Capa_1" xmlns="http://www.w3.org/2000/svg" xmlns:xlink="http://www.w3.org/1999/xlink" x="0px" y="0px"
	 viewBox="0 0 512 512" style="enable-background:new 0 0 512 512;" xml:space="preserve">
<path style="fill:#984D00;" d="M271,136.322h-30c0-33.98,27.645-61.625,61.625-61.625v30C285.187,104.697,271,118.884,271,136.322z"
	/>
<circle style="fill:#FF6536;" cx="256" cy="152.87" r="35.24"/>
<path style="fill:#FF421D;" d="M291.245,152.874c0,19.465-15.78,35.245-35.245,35.245c0-22.881,0-56.639,0-70.49
	C275.465,117.628,291.245,133.408,291.245,152.874z"/>
<polygon style="fill:#79D60D;" points="132.372,282.816 162.125,416 349.875,416 379.628,282.816 "/>
<polygon style="fill:#3CC602;" points="214.791,282.816 224.708,416 287.292,416 297.209,282.816 "/>
<polygon style="fill:#00AC00;" points="297.209,282.816 287.292,416 349.875,416 379.628,282.816 "/>
<path style="fill:#F1F1F2;" d="M345.243,237.942H166.757c-18.3,0-33.136-14.835-33.136-33.136l0,0
	c0-18.3,14.835-33.136,33.136-33.136h178.486c18.3,0,33.136,14.835,33.136,33.136l0,0
	C378.379,223.107,363.543,237.942,345.243,237.942z"/>
<g>
	<path style="fill:#E6E6E6;" d="M345.243,237.942H256V171.67h89.243c18.3,0,33.136,14.835,33.136,33.136l0,0
		C378.379,223.107,363.543,237.942,345.243,237.942z"/>
	<path style="fill:#E6E6E6;" d="M378.674,295.676H133.326c-18.3,0-33.136-14.835-33.136-33.136l0,0
		c0-18.3,14.835-33.136,33.136-33.136h245.349c18.3,0,33.136,14.835,33.136,33.136l0,0
		C411.81,280.84,396.975,295.676,378.674,295.676z"/>
</g>
<path style="fill:#CCCCCC;" d="M378.674,295.676H256v-66.272h122.674c18.3,0,33.136,14.835,33.136,33.136l0,0
	C411.81,280.84,396.975,295.676,378.674,295.676z"/>
<path style="fill:#FF6536;" d="M0,256c0,68.38,26.629,132.667,74.98,181.02C123.333,485.371,187.62,512,256,512
	s132.667-26.629,181.02-74.98C485.371,388.667,512,324.38,512,256s-26.629-132.667-74.98-181.02C388.667,26.629,324.38,0,256,0
	S123.333,26.629,74.98,74.98C26.629,123.333,0,187.62,0,256z M256,482c-55.339,0-107.632-19.768-148.845-55.942l318.902-318.902
	C462.232,148.367,482,200.661,482,256c0,60.367-23.508,117.12-66.194,159.806S316.367,482,256,482z M30,256
	c0-60.367,23.508-117.12,66.194-159.806S195.633,30,256,30c55.339,0,107.632,19.768,148.845,55.942L85.943,404.845
	C49.768,363.633,30,311.339,30,256z"/>
<path style="fill:#FF421D;" d="M437.02,74.98C388.667,26.629,324.38,0,256,0v30c55.339,0,107.632,19.768,148.845,55.942L256,234.787
	v42.426l170.057-170.057C462.232,148.367,482,200.661,482,256c0,60.367-23.508,117.12-66.194,159.806S316.367,482,256,482v30
	c68.38,0,132.667-26.629,181.02-74.98C485.371,388.667,512,324.38,512,256S485.371,123.333,437.02,74.98z"/>
<g>
</g>
<g>
</g>
<g>
</g>
<g>
</g>
<g>
</g>
<g>
</g>
<g>
</g>
<g>
</g>
<g>
</g>
<g>
</g>
<g>
</g>
<g>
</g>
<g>
</g>
<g>
</g>
<g>
</g>
</svg>
