<svg width="3590" height="1173" viewBox="0 0 3590 1173" fill="none" xmlns="http://www.w3.org/2000/svg">
<path d="M620.1 528.798H395.849V465.772H620.1V528.798Z" fill="#C4D9ED"/>
<path d="M620.1 665.505H395.849V602.478H620.1V665.505Z" fill="#C4D9ED"/>
<path d="M620.1 802.212H395.849V739.185H620.1V802.212Z" fill="#C4D9ED"/>
<path d="M620.1 938.932H395.849V875.892H620.1V938.932Z" fill="#C4D9ED"/>
<path d="M311.896 502.132V1010.06H87.572V725.185C90.1294 721.505 92.6854 717.838 95.2427 714.318C108.184 695.945 122.404 677.892 137.903 660.158C156.596 638.585 177.047 617.332 199.096 596.892C204.048 592.252 209.001 587.772 213.955 583.305C215.073 582.345 216.192 581.385 217.311 580.265C220.185 577.878 223.063 575.318 225.937 572.918C238.08 562.372 249.904 552.465 261.568 542.878C267.479 538.092 273.232 533.452 278.983 528.825C290.325 519.718 301.351 510.772 311.896 502.132Z" fill="#C4D9ED"/>
<path d="M261.568 542.878V1010.06H37.2441V815.292C37.5641 814.332 38.0428 813.225 38.5228 812.265C43.7948 800.598 49.5468 789.092 55.7775 777.425C65.2055 759.865 75.9095 742.438 87.5721 725.185C90.1295 721.505 92.6855 717.838 95.2428 714.318C108.184 695.945 122.404 677.892 137.903 660.158C156.596 638.585 177.047 617.332 199.096 596.892C204.048 592.252 209.001 587.772 213.955 583.305C215.073 582.345 216.192 581.385 217.311 580.265C220.185 577.878 223.063 575.318 225.937 572.918C238.08 562.372 249.904 552.465 261.568 542.878Z" fill="#D5E7F7"/>
<path d="M261.568 542.878V596.892H199.096C204.048 592.252 209.002 587.772 213.955 583.305C215.074 582.345 216.192 581.385 217.311 580.265C220.186 577.878 223.063 575.318 225.938 572.918C238.08 562.372 249.904 552.465 261.568 542.878Z" fill="#C4D9ED"/>
<path d="M261.568 660.158V714.318H95.2427C108.184 695.945 122.404 677.892 137.903 660.158H261.568Z" fill="#C4D9ED"/>
<path d="M261.568 777.425V831.598H37.2441V815.292C37.5641 814.332 38.0428 813.225 38.5228 812.265C43.7948 800.598 49.5468 789.092 55.7775 777.425H261.568Z" fill="#C4D9ED"/>
<path d="M261.521 948.985H37.2708V894.878H261.521V948.985Z" fill="#C4D9ED"/>
<path d="M791.935 1113.53H698.005V976.571H791.935V1113.53Z" fill="#DCEAF9"/>
<path d="M2080.05 432.142V347.543H2054.37V202.087H1916.68V347.543H1787.96V110.526H1645.92V264.388H1613.51V80.7014H1471.46V425.104H1291.8V625.943H1224.67V676.543H1070.48V589.424H981.964V352.676H872.609V789.703H763.254V1169.98H872.609H966.342H981.964H1070.48H1120.52H1200.67H1224.67H1291.8H1354.86H1471.46H1507.17H1578.21H1613.51H1645.92H1720.26H1770.88H1787.96H1916.68H2052.09H2054.37H2080.05H2189.77V432.142H2080.05Z" fill="#D5E7F7"/>
<path d="M1613.51 139.038H1471.37V103.945H1613.51V139.038Z" fill="#C4D9ED"/>
<path d="M1613.51 204.958H1471.37V169.865H1613.51V204.958Z" fill="#C4D9ED"/>
<path d="M1613.51 264.278H1471.37V229.185H1613.51V264.278Z" fill="#C4D9ED"/>
<path d="M1787.91 264.278H1645.79V229.185H1787.91V264.278Z" fill="#C4D9ED"/>
<path d="M1787.91 204.958H1645.79V169.865H1787.91V204.958Z" fill="#C4D9ED"/>
<path d="M1787.91 145.745H1645.79V110.652H1787.91V145.745Z" fill="#C4D9ED"/>
<path d="M1787.96 321.785H1471.37V286.692H1787.96V321.785Z" fill="#C4D9ED"/>
<path d="M1787.96 379.292H1471.37V344.198H1787.96V379.292Z" fill="#C4D9ED"/>
<path d="M982.972 406.865H872.656V352.705H982.972V406.865Z" fill="#C4D9ED"/>
<path d="M982.972 487.425H872.656V433.251H982.972V487.425Z" fill="#C4D9ED"/>
<path d="M982.972 567.985H872.656V513.811H982.972V567.985Z" fill="#C4D9ED"/>
<path d="M982.972 652.425H872.656V598.251H982.972V652.425Z" fill="#C4D9ED"/>
<path d="M982.972 734.252H872.656V680.078H982.972V734.252Z" fill="#C4D9ED"/>
<path d="M982.972 816.078H872.656V761.905H982.972V816.078Z" fill="#C4D9ED"/>
<path d="M982.972 901.692H872.656V847.518H982.972V901.692Z" fill="#C4D9ED"/>
<path d="M1787.96 422.678H1471.37V400.398H1787.96V422.678Z" fill="#C4D9ED"/>
<path d="M981.44 352.705V589.425H1022.12V352.705H981.44Z" fill="#C4D9ED"/>
<path d="M1070.48 589.425H1152.31V676.545H1070.48V589.425Z" fill="#C4D9ED"/>
<path d="M1787.91 110.652H1816.15V347.545H1787.96L1787.91 110.652Z" fill="#C4D9ED"/>
<path d="M1613.51 80.6917H1630.84V264.278H1613.51V80.6917Z" fill="#C4D9ED"/>
<path d="M1321.16 493.612H1345.24V459.665H1321.16V493.612Z" fill="#C7DCEF"/>
<path d="M1366.19 493.612H1390.27V459.665H1366.19V493.612Z" fill="#C7DCEF"/>
<path d="M1410.21 493.612H1434.29V459.665H1410.21V493.612Z" fill="#C7DCEF"/>
<path d="M1451.95 493.612H1476.04V459.665H1451.95V493.612Z" fill="#C7DCEF"/>
<path d="M1494.49 493.612H1518.58V459.665H1494.49V493.612Z" fill="#C7DCEF"/>
<path d="M1537.52 493.612H1561.61V459.665H1537.52V493.612Z" fill="#C7DCEF"/>
<path d="M1582.56 493.612H1606.64V459.665H1582.56V493.612Z" fill="#C7DCEF"/>
<path d="M1626.59 493.612H1650.67V459.665H1626.59V493.612Z" fill="#C7DCEF"/>
<path d="M1668.32 493.612H1692.4V459.665H1668.32V493.612Z" fill="#C7DCEF"/>
<path d="M1710.87 493.612H1734.95V459.665H1710.87V493.612Z" fill="#C7DCEF"/>
<path d="M1755.2 493.612H1779.28V459.665H1755.2V493.612Z" fill="#C7DCEF"/>
<path d="M1800.24 493.612H1824.32V459.665H1800.24V493.612Z" fill="#C7DCEF"/>
<path d="M1868.33 493.614H1844.24V459.667H1868.33V493.614Z" fill="#C7DCEF"/>
<path d="M1910.08 493.613H1885.99V459.666H1910.08V493.613Z" fill="#C7DCEF"/>
<path d="M1952.63 493.609H1928.56V459.662H1952.63V493.609Z" fill="#C7DCEF"/>
<path d="M1995.66 493.606H1971.58V459.66H1995.66V493.606Z" fill="#C7DCEF"/>
<path d="M2040.67 493.614H2016.59V459.669H2040.67V493.614Z" fill="#C7DCEF"/>
<path d="M2084.71 493.612H2060.63V459.666H2084.71V493.612Z" fill="#C7DCEF"/>
<path d="M2126.46 493.611H2102.37V459.664H2126.46V493.611Z" fill="#C7DCEF"/>
<path d="M2169.01 493.608H2144.92V459.661H2169.01V493.608Z" fill="#C7DCEF"/>
<path d="M1321.16 553.505H1345.24V519.558H1321.16V553.505Z" fill="#C7DCEF"/>
<path d="M1366.19 553.505H1390.27V519.558H1366.19V553.505Z" fill="#C7DCEF"/>
<path d="M1410.21 553.505H1434.29V519.558H1410.21V553.505Z" fill="#C7DCEF"/>
<path d="M1451.95 553.505H1476.04V519.558H1451.95V553.505Z" fill="#C7DCEF"/>
<path d="M1494.49 553.505H1518.58V519.558H1494.49V553.505Z" fill="#C7DCEF"/>
<path d="M1537.52 553.505H1561.61V519.558H1537.52V553.505Z" fill="#C7DCEF"/>
<path d="M1582.56 553.505H1606.64V519.558H1582.56V553.505Z" fill="#C7DCEF"/>
<path d="M1626.59 553.505H1650.67V519.558H1626.59V553.505Z" fill="#C7DCEF"/>
<path d="M1668.32 553.505H1692.4V519.558H1668.32V553.505Z" fill="#C7DCEF"/>
<path d="M1710.87 553.505H1734.95V519.558H1710.87V553.505Z" fill="#C7DCEF"/>
<path d="M1755.2 553.505H1779.28V519.558H1755.2V553.505Z" fill="#C7DCEF"/>
<path d="M1800.24 553.505H1824.32V519.558H1800.24V553.505Z" fill="#C7DCEF"/>
<path d="M1868.33 553.508H1844.24V519.561H1868.33V553.508Z" fill="#C7DCEF"/>
<path d="M1910.08 553.506H1885.99V519.559H1910.08V553.506Z" fill="#C7DCEF"/>
<path d="M1952.63 553.503H1928.56V519.555H1952.63V553.503Z" fill="#C7DCEF"/>
<path d="M1995.66 553.5H1971.58V519.553H1995.66V553.5Z" fill="#C7DCEF"/>
<path d="M2040.67 553.509H2016.59V519.562H2040.67V553.509Z" fill="#C7DCEF"/>
<path d="M2084.71 553.505H2060.63V519.559H2084.71V553.505Z" fill="#C7DCEF"/>
<path d="M2126.46 553.505H2102.37V519.558H2126.46V553.505Z" fill="#C7DCEF"/>
<path d="M2169.01 553.501H2144.92V519.554H2169.01V553.501Z" fill="#C7DCEF"/>
<path d="M1321.16 612.492H1345.24V578.545H1321.16V612.492Z" fill="#C7DCEF"/>
<path d="M1366.19 612.492H1390.27V578.545H1366.19V612.492Z" fill="#C7DCEF"/>
<path d="M1410.21 612.492H1434.29V578.545H1410.21V612.492Z" fill="#C7DCEF"/>
<path d="M1451.95 612.492H1476.04V578.545H1451.95V612.492Z" fill="#C7DCEF"/>
<path d="M1494.49 612.492H1518.58V578.545H1494.49V612.492Z" fill="#C7DCEF"/>
<path d="M1537.52 612.492H1561.61V578.545H1537.52V612.492Z" fill="#C7DCEF"/>
<path d="M1582.56 612.492H1606.64V578.545H1582.56V612.492Z" fill="#C7DCEF"/>
<path d="M1626.59 612.492H1650.67V578.545H1626.59V612.492Z" fill="#C7DCEF"/>
<path d="M1668.32 612.492H1692.4V578.545H1668.32V612.492Z" fill="#C7DCEF"/>
<path d="M1710.87 612.492H1734.95V578.545H1710.87V612.492Z" fill="#C7DCEF"/>
<path d="M1755.2 612.492H1779.28V578.545H1755.2V612.492Z" fill="#C7DCEF"/>
<path d="M1800.24 612.492H1824.32V578.545H1800.24V612.492Z" fill="#C7DCEF"/>
<path d="M1868.33 612.494H1844.24V578.547H1868.33V612.494Z" fill="#C7DCEF"/>
<path d="M1910.08 612.492H1885.99V578.547H1910.08V612.492Z" fill="#C7DCEF"/>
<path d="M1952.63 612.49H1928.56V578.543H1952.63V612.49Z" fill="#C7DCEF"/>
<path d="M1995.66 612.487H1971.58V578.541H1995.66V612.487Z" fill="#C7DCEF"/>
<path d="M2040.67 612.495H2016.59V578.548H2040.67V612.495Z" fill="#C7DCEF"/>
<path d="M2084.71 612.492H2060.63V578.546H2084.71V612.492Z" fill="#C7DCEF"/>
<path d="M2126.46 612.491H2102.37V578.545H2126.46V612.491Z" fill="#C7DCEF"/>
<path d="M2169.01 612.488H2144.92V578.541H2169.01V612.488Z" fill="#C7DCEF"/>
<path d="M1321.16 675.145H1345.24V641.212H1321.16V675.145Z" fill="#C7DCEF"/>
<path d="M1366.19 675.145H1390.27V641.212H1366.19V675.145Z" fill="#C7DCEF"/>
<path d="M1410.21 675.145H1434.29V641.212H1410.21V675.145Z" fill="#C7DCEF"/>
<path d="M1451.95 675.145H1476.04V641.212H1451.95V675.145Z" fill="#C7DCEF"/>
<path d="M1494.49 675.145H1518.58V641.212H1494.49V675.145Z" fill="#C7DCEF"/>
<path d="M1537.52 675.145H1561.61V641.212H1537.52V675.145Z" fill="#C7DCEF"/>
<path d="M1582.56 675.145H1606.64V641.212H1582.56V675.145Z" fill="#C7DCEF"/>
<path d="M1626.59 675.145H1650.67V641.212H1626.59V675.145Z" fill="#C7DCEF"/>
<path d="M1668.32 675.145H1692.4V641.212H1668.32V675.145Z" fill="#C7DCEF"/>
<path d="M1710.87 675.145H1734.95V641.212H1710.87V675.145Z" fill="#C7DCEF"/>
<path d="M1755.2 675.145H1779.28V641.212H1755.2V675.145Z" fill="#C7DCEF"/>
<path d="M1800.24 675.145H1824.32V641.212H1800.24V675.145Z" fill="#C7DCEF"/>
<path d="M1868.33 675.147H1844.24V641.214H1868.33V675.147Z" fill="#C7DCEF"/>
<path d="M1910.08 675.146H1885.99V641.213H1910.08V675.146Z" fill="#C7DCEF"/>
<path d="M1952.63 675.143H1928.56V641.209H1952.63V675.143Z" fill="#C7DCEF"/>
<path d="M1995.66 675.14H1971.58V641.207H1995.66V675.14Z" fill="#C7DCEF"/>
<path d="M2040.67 675.148H2016.59V641.215H2040.67V675.148Z" fill="#C7DCEF"/>
<path d="M2084.71 675.146H2060.63V641.213H2084.71V675.146Z" fill="#C7DCEF"/>
<path d="M2126.46 675.145H2102.37V641.211H2126.46V675.145Z" fill="#C7DCEF"/>
<path d="M2169.01 675.141H2144.92V641.208H2169.01V675.141Z" fill="#C7DCEF"/>
<path d="M1321.16 735.052H1345.24V701.105H1321.16V735.052Z" fill="#C7DCEF"/>
<path d="M1366.19 735.052H1390.27V701.105H1366.19V735.052Z" fill="#C7DCEF"/>
<path d="M1410.21 735.052H1434.29V701.105H1410.21V735.052Z" fill="#C7DCEF"/>
<path d="M1451.95 735.052H1476.04V701.105H1451.95V735.052Z" fill="#C7DCEF"/>
<path d="M1494.49 735.052H1518.58V701.105H1494.49V735.052Z" fill="#C7DCEF"/>
<path d="M1537.52 735.052H1561.61V701.105H1537.52V735.052Z" fill="#C7DCEF"/>
<path d="M1582.56 735.052H1606.64V701.105H1582.56V735.052Z" fill="#C7DCEF"/>
<path d="M1626.59 735.052H1650.67V701.105H1626.59V735.052Z" fill="#C7DCEF"/>
<path d="M1668.32 735.052H1692.4V701.105H1668.32V735.052Z" fill="#C7DCEF"/>
<path d="M1710.87 735.052H1734.95V701.105H1710.87V735.052Z" fill="#C7DCEF"/>
<path d="M1755.2 735.052H1779.28V701.105H1755.2V735.052Z" fill="#C7DCEF"/>
<path d="M1800.24 735.052H1824.32V701.105H1800.24V735.052Z" fill="#C7DCEF"/>
<path d="M1868.33 735.053H1844.24V701.108H1868.33V735.053Z" fill="#C7DCEF"/>
<path d="M1910.08 735.053H1885.99V701.106H1910.08V735.053Z" fill="#C7DCEF"/>
<path d="M1952.63 735.05H1928.56V701.103H1952.63V735.05Z" fill="#C7DCEF"/>
<path d="M1995.66 735.047H1971.58V701.101H1995.66V735.047Z" fill="#C7DCEF"/>
<path d="M2040.67 735.054H2016.59V701.107H2040.67V735.054Z" fill="#C7DCEF"/>
<path d="M2084.71 735.052H2060.63V701.106H2084.71V735.052Z" fill="#C7DCEF"/>
<path d="M2126.46 735.051H2102.37V701.105H2126.46V735.051Z" fill="#C7DCEF"/>
<path d="M2169.01 735.048H2144.92V701.101H2169.01V735.048Z" fill="#C7DCEF"/>
<path d="M1321.16 794.025H1345.24V760.078H1321.16V794.025Z" fill="#C7DCEF"/>
<path d="M1366.19 794.025H1390.27V760.078H1366.19V794.025Z" fill="#C7DCEF"/>
<path d="M1410.21 794.025H1434.29V760.078H1410.21V794.025Z" fill="#C7DCEF"/>
<path d="M1451.95 794.025H1476.04V760.078H1451.95V794.025Z" fill="#C7DCEF"/>
<path d="M1494.49 794.025H1518.58V760.078H1494.49V794.025Z" fill="#C7DCEF"/>
<path d="M1537.52 794.025H1561.61V760.078H1537.52V794.025Z" fill="#C7DCEF"/>
<path d="M1582.56 794.025H1606.64V760.078H1582.56V794.025Z" fill="#C7DCEF"/>
<path d="M1626.59 794.025H1650.67V760.078H1626.59V794.025Z" fill="#C7DCEF"/>
<path d="M1668.32 794.025H1692.4V760.078H1668.32V794.025Z" fill="#C7DCEF"/>
<path d="M1710.87 794.025H1734.95V760.078H1710.87V794.025Z" fill="#C7DCEF"/>
<path d="M1755.2 794.025H1779.28V760.078H1755.2V794.025Z" fill="#C7DCEF"/>
<path d="M1800.24 794.025H1824.32V760.078H1800.24V794.025Z" fill="#C7DCEF"/>
<path d="M1855.6 794.028H1844.24V760.081H1868.33V791.16C1864.08 792.147 1859.82 793.108 1855.6 794.028Z" fill="#C7DCEF"/>
<path d="M1885.99 786.933V760.08H1910.08V780.906C1902.03 782.946 1893.99 784.973 1885.99 786.933Z" fill="#C7DCEF"/>
<path d="M1928.56 776.182V760.076H1952.63V770.142C1944.59 772.115 1936.57 774.156 1928.56 776.182Z" fill="#C7DCEF"/>
<path d="M1971.58 765.608V760.075H1995.66V760.341C1987.66 761.981 1979.62 763.754 1971.58 765.608Z" fill="#C7DCEF"/>
<path d="M2169.01 765.582C2164.18 763.529 2159.3 761.689 2154.36 760.076H2169.01V765.582Z" fill="#C7DCEF"/>
<path d="M1710.45 1167.53H1152.31V866.425H1710.45V1167.53Z" fill="#C4D9ED"/>
<path d="M1287.23 1167.53H729.073V1016.99H1287.23V1167.53Z" fill="#C4D9ED"/>
<path d="M2313.34 1167.53H1755.19V913.346H2313.34V1167.53Z" fill="#C4D9ED"/>
<path d="M1293.59 957.452H1189.59V901.692H1293.59V957.452Z" fill="#D5E7F7"/>
<path d="M1427.07 957.452H1323.08V901.692H1427.07V957.452Z" fill="#D5E7F7"/>
<path d="M1558.01 957.452H1454.03V901.692H1558.01V957.452Z" fill="#D5E7F7"/>
<path d="M1686.45 957.452H1582.45V901.692H1686.45V957.452Z" fill="#D5E7F7"/>
<path d="M1704.65 1170.13H1758.23V866.425H1704.65V1170.13Z" fill="#ADC9E0"/>
<path d="M2422.79 1170.13H2369.22V807.691H2422.79V1170.13Z" fill="#ADC9E0"/>
<path d="M2370.87 1165.09H2313.35V913.344H2370.87V1165.09Z" fill="#ADC9E0"/>
<path d="M2270.25 928.317C2268.76 932.305 2265.15 934.651 2262.19 933.545C2259.22 932.438 2258.02 928.305 2259.51 924.318C2260.98 920.318 2271.9 907.491 2271.9 907.491C2271.9 907.491 2271.74 924.318 2270.25 928.317Z" fill="#DCEAF9"/>
<path d="M2240.99 829.961C2239.48 833.947 2235.87 836.28 2232.91 835.187C2229.95 834.08 2228.74 829.947 2230.23 825.947C2231.72 821.961 2242.62 809.134 2242.62 809.134C2242.62 809.134 2242.46 825.961 2240.99 829.961Z" fill="#DCEAF9"/>
<path d="M2128.82 978.279C2127.32 982.266 2123.73 984.611 2120.74 983.505C2117.79 982.399 2116.59 978.265 2118.07 974.278C2119.56 970.277 2130.45 957.451 2130.45 957.451C2130.45 957.451 2130.3 974.278 2128.82 978.279Z" fill="#DCEAF9"/>
<path d="M2221.44 1140.73C2221.44 1140.73 2211.11 1163.04 2231.23 1164.66C2251.36 1166.3 2263.33 1158.14 2268.22 1148.36C2268.22 1148.36 2243.2 1158.69 2247.01 1146.17C2250.82 1133.66 2260.61 1113.53 2260.61 1113.53C2260.61 1113.53 2239.41 1151.64 2228.83 1149.8C2224.11 1148.98 2221.44 1140.73 2221.44 1140.73Z" fill="#EBF2F9"/>
<path d="M897.513 352.705H894.612V329.132H897.513V352.705Z" fill="#DCEAF9"/>
<path d="M1001.75 352.705H998.841V329.132H1001.75V352.705Z" fill="#DCEAF9"/>
<path d="M2063.67 1165.09H2370.87V806.81H2063.67V1165.09Z" fill="#D5E7F7"/>
<path d="M2350.27 807.692H2344.59V735.053H2350.27V807.692Z" fill="#D5E7F7"/>
<path d="M2063.67 1165.09H2446.91V907.356H2063.67V1165.09Z" fill="#D5E7F7"/>
<path d="M2063.67 957.449H2446.91V873.691H2063.67V957.449Z" fill="#C4D9ED"/>
<path d="M2109.44 1010.03H2089.76V982.279H2109.44V1010.03Z" fill="#C4D9ED"/>
<path d="M2146.25 1010.03H2126.58V982.278H2146.25V1010.03Z" fill="#C4D9ED"/>
<path d="M2182.25 1010.02H2162.55V982.277H2182.25V1010.02Z" fill="#C4D9ED"/>
<path d="M2216.34 1010.03H2196.67V982.278H2216.34V1010.03Z" fill="#C4D9ED"/>
<path d="M2251.12 1010.03H2231.44V982.279H2251.12V1010.03Z" fill="#C4D9ED"/>
<path d="M2286.3 1010.02H2266.62V982.276H2286.3V1010.02Z" fill="#C4D9ED"/>
<path d="M2323.1 1010.02H2303.41V982.277H2323.1V1010.02Z" fill="#C4D9ED"/>
<path d="M2359.09 1010.02H2339.4V982.276H2359.09V1010.02Z" fill="#C4D9ED"/>
<path d="M2393.21 1010.02H2373.53V982.276H2393.21V1010.02Z" fill="#C4D9ED"/>
<path d="M2427.98 1010.02H2408.29V982.276H2427.98V1010.02Z" fill="#C4D9ED"/>
<path d="M2109.44 1058.97H2089.76V1031.24H2109.44V1058.97Z" fill="#C4D9ED"/>
<path d="M2146.25 1058.97H2126.58V1031.24H2146.25V1058.97Z" fill="#C4D9ED"/>
<path d="M2182.25 1058.97H2162.55V1031.24H2182.25V1058.97Z" fill="#C4D9ED"/>
<path d="M2216.34 1058.97H2196.67V1031.24H2216.34V1058.97Z" fill="#C4D9ED"/>
<path d="M2251.12 1058.97H2231.44V1031.24H2251.12V1058.97Z" fill="#C4D9ED"/>
<path d="M2286.3 1058.97H2266.62V1031.24H2286.3V1058.97Z" fill="#C4D9ED"/>
<path d="M2323.1 1058.97H2303.41V1031.24H2323.1V1058.97Z" fill="#C4D9ED"/>
<path d="M2359.09 1058.97H2339.4V1031.24H2359.09V1058.97Z" fill="#C4D9ED"/>
<path d="M2393.21 1058.97H2373.53V1031.24H2393.21V1058.97Z" fill="#C4D9ED"/>
<path d="M2427.98 1058.97H2408.29V1031.24H2427.98V1058.97Z" fill="#C4D9ED"/>
<path d="M2109.44 1107.19H2089.76V1079.44H2109.44V1107.19Z" fill="#C4D9ED"/>
<path d="M2146.25 1107.18H2126.58V1079.44H2146.25V1107.18Z" fill="#C4D9ED"/>
<path d="M2182.25 1107.18H2162.55V1079.44H2182.25V1107.18Z" fill="#C4D9ED"/>
<path d="M2216.34 1107.19H2196.67V1079.44H2216.34V1107.19Z" fill="#C4D9ED"/>
<path d="M2251.12 1107.19H2231.44V1079.44H2251.12V1107.19Z" fill="#C4D9ED"/>
<path d="M2286.3 1107.18H2266.62V1079.44H2286.3V1107.18Z" fill="#C4D9ED"/>
<path d="M2323.1 1107.18H2303.41V1079.44H2323.1V1107.18Z" fill="#C4D9ED"/>
<path d="M2359.09 1107.18H2339.4V1079.44H2359.09V1107.18Z" fill="#C4D9ED"/>
<path d="M2393.21 1107.18H2373.53V1079.44H2393.21V1107.18Z" fill="#C4D9ED"/>
<path d="M2427.98 1107.18H2408.29V1079.44H2427.98V1107.18Z" fill="#C4D9ED"/>
<path d="M2109.44 925.839H2092.91V897.226H2109.44V925.839Z" fill="#ADC9E0"/>
<path d="M2273.66 925.838H2257.11V897.225H2273.66V925.838Z" fill="#ADC9E0"/>
<path d="M2404.27 925.836H2387.74V897.224H2404.27V925.836Z" fill="#ADC9E0"/>
<path d="M451.495 1165.09H834.731V907.358H451.495V1165.09Z" fill="#D5E7F7"/>
<path d="M451.495 957.452H834.731V873.692H451.495V957.452Z" fill="#C4D9ED"/>
<path d="M497.271 1010.02H477.588V982.278H497.271V1010.02Z" fill="#C4D9ED"/>
<path d="M534.076 1010.02H514.395V982.278H534.076V1010.02Z" fill="#C4D9ED"/>
<path d="M570.059 1010.02H550.376V982.278H570.059V1010.02Z" fill="#C4D9ED"/>
<path d="M604.176 1010.02H584.493V982.278H604.176V1010.02Z" fill="#C4D9ED"/>
<path d="M638.947 1010.02H619.264V982.278H638.947V1010.02Z" fill="#C4D9ED"/>
<path d="M674.116 1010.02H654.433V982.278H674.116V1010.02Z" fill="#C4D9ED"/>
<path d="M710.923 1010.02H691.24V982.278H710.923V1010.02Z" fill="#C4D9ED"/>
<path d="M746.904 1010.02H727.223V982.278H746.904V1010.02Z" fill="#C4D9ED"/>
<path d="M781.021 1010.02H761.339V982.278H781.021V1010.02Z" fill="#C4D9ED"/>
<path d="M815.792 1010.02H796.109V982.278H815.792V1010.02Z" fill="#C4D9ED"/>
<path d="M497.271 1058.97H477.588V1031.24H497.271V1058.97Z" fill="#C4D9ED"/>
<path d="M534.076 1058.97H514.395V1031.24H534.076V1058.97Z" fill="#C4D9ED"/>
<path d="M570.059 1058.97H550.376V1031.24H570.059V1058.97Z" fill="#C4D9ED"/>
<path d="M604.176 1058.97H584.493V1031.24H604.176V1058.97Z" fill="#C4D9ED"/>
<path d="M638.947 1058.97H619.264V1031.24H638.947V1058.97Z" fill="#C4D9ED"/>
<path d="M674.116 1058.97H654.433V1031.24H674.116V1058.97Z" fill="#C4D9ED"/>
<path d="M710.923 1058.97H691.24V1031.24H710.923V1058.97Z" fill="#C4D9ED"/>
<path d="M746.904 1058.97H727.223V1031.24H746.904V1058.97Z" fill="#C4D9ED"/>
<path d="M781.021 1058.97H761.339V1031.24H781.021V1058.97Z" fill="#C4D9ED"/>
<path d="M815.792 1058.97H796.109V1031.24H815.792V1058.97Z" fill="#C4D9ED"/>
<path d="M497.271 1107.18H477.588V1079.44H497.271V1107.18Z" fill="#C4D9ED"/>
<path d="M534.076 1107.18H514.395V1079.44H534.076V1107.18Z" fill="#C4D9ED"/>
<path d="M570.059 1107.18H550.376V1079.44H570.059V1107.18Z" fill="#C4D9ED"/>
<path d="M604.176 1107.18H584.493V1079.44H604.176V1107.18Z" fill="#C4D9ED"/>
<path d="M638.947 1107.18H619.264V1079.44H638.947V1107.18Z" fill="#C4D9ED"/>
<path d="M674.116 1107.18H654.433V1079.44H674.116V1107.18Z" fill="#C4D9ED"/>
<path d="M710.923 1107.18H691.24V1079.44H710.923V1107.18Z" fill="#C4D9ED"/>
<path d="M746.904 1107.18H727.223V1079.44H746.904V1107.18Z" fill="#C4D9ED"/>
<path d="M781.021 1107.18H761.339V1079.44H781.021V1107.18Z" fill="#C4D9ED"/>
<path d="M815.792 1107.18H796.109V1079.44H815.792V1107.18Z" fill="#C4D9ED"/>
<path d="M497.271 925.838H480.731V897.225H497.271V925.838Z" fill="#ADC9E0"/>
<path d="M661.472 925.838H644.932V897.225H661.472V925.838Z" fill="#ADC9E0"/>
<path d="M792.092 925.838H775.552V897.225H792.092V925.838Z" fill="#ADC9E0"/>
<path d="M427.412 907.318V1165.04H90.6081L44.1147 1114.72V907.318H427.412Z" fill="#D5E7F7"/>
<path d="M44.1907 957.452H427.427V873.692H44.1907V957.452Z" fill="#C4D9ED"/>
<path d="M89.9668 1010.02H70.2842V982.278H89.9668V1010.02Z" fill="#C4D9ED"/>
<path d="M126.772 1010.02H107.091V982.278H126.772V1010.02Z" fill="#C4D9ED"/>
<path d="M162.755 1010.02H143.072V982.278H162.755V1010.02Z" fill="#C4D9ED"/>
<path d="M196.872 1010.02H177.189V982.278H196.872V1010.02Z" fill="#C4D9ED"/>
<path d="M231.643 1010.02H211.96V982.278H231.643V1010.02Z" fill="#C4D9ED"/>
<path d="M266.812 1010.02H247.129V982.278H266.812V1010.02Z" fill="#C4D9ED"/>
<path d="M303.619 1010.02H283.936V982.278H303.619V1010.02Z" fill="#C4D9ED"/>
<path d="M339.6 1010.02H319.919V982.278H339.6V1010.02Z" fill="#C4D9ED"/>
<path d="M373.717 1010.02H354.035V982.278H373.717V1010.02Z" fill="#C4D9ED"/>
<path d="M408.488 1010.02H388.805V982.278H408.488V1010.02Z" fill="#C4D9ED"/>
<path d="M89.9668 1058.97H70.2842V1031.24H89.9668V1058.97Z" fill="#C4D9ED"/>
<path d="M126.772 1058.97H107.091V1031.24H126.772V1058.97Z" fill="#C4D9ED"/>
<path d="M162.755 1058.97H143.072V1031.24H162.755V1058.97Z" fill="#C4D9ED"/>
<path d="M196.872 1058.97H177.189V1031.24H196.872V1058.97Z" fill="#C4D9ED"/>
<path d="M231.643 1058.97H211.96V1031.24H231.643V1058.97Z" fill="#C4D9ED"/>
<path d="M266.812 1058.97H247.129V1031.24H266.812V1058.97Z" fill="#C4D9ED"/>
<path d="M303.619 1058.97H283.936V1031.24H303.619V1058.97Z" fill="#C4D9ED"/>
<path d="M339.6 1058.97H319.919V1031.24H339.6V1058.97Z" fill="#C4D9ED"/>
<path d="M373.717 1058.97H354.035V1031.24H373.717V1058.97Z" fill="#C4D9ED"/>
<path d="M408.488 1058.97H388.805V1031.24H408.488V1058.97Z" fill="#C4D9ED"/>
<path d="M89.9668 1107.18H70.2842V1079.44H89.9668V1107.18Z" fill="#C4D9ED"/>
<path d="M126.772 1107.18H107.091V1079.44H126.772V1107.18Z" fill="#C4D9ED"/>
<path d="M162.755 1107.18H143.072V1079.44H162.755V1107.18Z" fill="#C4D9ED"/>
<path d="M196.872 1107.18H177.189V1079.44H196.872V1107.18Z" fill="#C4D9ED"/>
<path d="M231.643 1107.18H211.96V1079.44H231.643V1107.18Z" fill="#C4D9ED"/>
<path d="M266.812 1107.18H247.129V1079.44H266.812V1107.18Z" fill="#C4D9ED"/>
<path d="M303.619 1107.18H283.936V1079.44H303.619V1107.18Z" fill="#C4D9ED"/>
<path d="M339.6 1107.18H319.919V1079.44H339.6V1107.18Z" fill="#C4D9ED"/>
<path d="M373.717 1107.18H354.035V1079.44H373.717V1107.18Z" fill="#C4D9ED"/>
<path d="M408.488 1107.18H388.805V1079.44H408.488V1107.18Z" fill="#C4D9ED"/>
<path d="M89.9668 925.838H73.4268V897.225H89.9668V925.838Z" fill="#ADC9E0"/>
<path d="M254.168 925.838H237.628V897.225H254.168V925.838Z" fill="#ADC9E0"/>
<path d="M384.788 925.838H368.248V897.225H384.788V925.838Z" fill="#ADC9E0"/>
<path d="M19.1894 907.318V1068.54C6.88675 1038.5 0.976074 1005.9 0.976074 971.878C0.976074 970.278 0.976066 968.518 1.13473 966.758C1.13473 963.732 1.29473 960.532 1.29473 957.492C1.45606 954.785 1.61474 952.065 1.7734 949.345C2.5734 939.438 3.69075 929.532 5.28942 919.638C5.28942 919.305 5.44941 918.998 5.44941 918.678C5.76808 917.078 6.08808 915.305 6.24808 913.558C6.56808 911.478 7.04672 909.412 7.52672 907.318H19.1894Z" fill="#D5E7F7"/>
<path d="M19.1894 873.612V957.492H1.29468C1.45601 954.785 1.61469 952.065 1.77336 949.345C2.57336 939.438 3.69071 929.532 5.28937 919.638C5.28937 919.305 5.44937 918.998 5.44937 918.678C5.76803 917.078 6.08803 915.305 6.24803 913.558C6.56803 911.478 7.04668 909.412 7.52668 907.318C8.96401 899.972 10.7214 892.625 12.64 885.118C12.9587 883.358 13.4387 881.598 13.9174 879.852C14.5574 877.772 15.036 875.692 15.8347 873.612H19.1894Z" fill="#C4D9ED"/>
<path d="M3481.97 1166.81H2422.79V1165.09H2446.92V957.449V893.05C2540.93 926.971 2644.97 953.171 2743.87 953.183C2816.4 953.183 2886.11 939.091 2947.15 903.584C3068.16 833.13 3218.64 805.276 3350.43 805.276C3446.12 805.276 3531.94 819.957 3589.5 843.69C3589.21 845.423 3588.9 847.145 3588.61 848.878C3587.31 856.211 3585.98 863.449 3584.56 870.57C3584.53 870.69 3584.53 870.796 3584.51 870.905C3584.12 872.824 3583.76 874.757 3583.35 876.664L3583.21 877.464L3583.11 877.77C3582.29 881.784 3581.45 885.718 3580.63 889.69C3580.34 891.079 3580.03 892.45 3579.74 893.824C3577.62 903.37 3575.42 912.73 3573.16 921.89C3573.04 922.372 3572.92 922.851 3572.8 923.317C3572.53 924.305 3572.29 925.264 3572.07 926.277C3572.02 926.491 3571.98 926.718 3571.9 926.93C3568.22 941.571 3564.31 955.704 3560.31 969.29C3557.73 977.931 3555.1 986.356 3552.45 994.571C3551.32 998.078 3550.21 1001.6 3549.08 1005.11C3548.21 1007.78 3547.32 1010.43 3546.45 1013.02C3544.28 1019.46 3542.11 1025.73 3539.92 1031.84C3537.72 1037.96 3535.53 1043.92 3533.36 1049.68C3527.7 1064.76 3522.1 1078.61 3516.85 1091.08C3511.26 1104.24 3506 1115.89 3501.32 1125.89C3494.26 1140.94 3488.09 1153.98 3484.09 1162.36C3483.29 1164.04 3482.57 1165.53 3481.97 1166.81ZM2369.23 1166.81H2313.35V1165.09H2369.23V1166.81ZM2249.28 806.81H2189.77V775.905C2206.91 785.038 2226.91 795.543 2249.28 806.81Z" fill="#DDE9F8"/>
<path d="M2063.67 913.344H1758.23V866.423H1746.94V805.091C1752.77 805.544 1758.71 805.756 1764.7 805.756C1793.54 805.756 1824.11 800.89 1855.61 794.024H1868.33V791.157C1874.2 789.796 1880.09 788.383 1886.01 786.93V794.024H1910.09V780.903C1914.11 779.878 1918.14 778.838 1922.18 777.811C1924.3 777.277 1926.41 776.731 1928.56 776.183V794.024H1952.64V770.143C1958.94 768.598 1965.27 767.077 1971.57 765.611V794.024H1995.65V760.344C2025.93 754.157 2055.89 749.863 2084.83 749.863C2108.84 749.863 2132.16 752.824 2154.35 760.077H2144.92V794.024H2169V765.584C2173.7 767.583 2178.33 769.797 2182.89 772.237C2185.14 773.438 2187.42 774.664 2189.77 775.903V806.81H2063.67V913.344ZM2102.38 760.077V794.024H2126.45V760.077H2102.38ZM2060.63 760.077V794.024H2084.71V760.077H2060.63ZM2016.6 760.077V794.024H2040.69V760.077H2016.6Z" fill="#CEE1F3"/>
<path d="M1868.33 794.028H1855.6C1859.82 793.108 1864.08 792.147 1868.33 791.16V794.028Z" fill="#C6DBEE"/>
<path d="M1910.08 794.026H1885.99V786.933C1893.99 784.973 1902.03 782.945 1910.08 780.906V794.026Z" fill="#C6DBEE"/>
<path d="M1952.63 794.023H1928.56V776.182C1936.57 774.156 1944.59 772.115 1952.63 770.142V794.023Z" fill="#C6DBEE"/>
<path d="M1995.66 794.021H1971.58V765.608C1979.62 763.754 1987.66 761.982 1995.66 760.341V794.021Z" fill="#C6DBEE"/>
<path d="M2040.67 794.027H2016.59V760.081H2040.67V794.027Z" fill="#C6DBEE"/>
<path d="M2084.71 794.026H2060.63V760.079H2084.71V794.026Z" fill="#C6DBEE"/>
<path d="M2126.46 794.025H2102.37V760.078H2126.46V794.025Z" fill="#C6DBEE"/>
<path d="M2169.01 794.022H2144.92V760.076H2154.36C2159.3 761.689 2164.18 763.529 2169.01 765.582V794.022Z" fill="#C6DBEE"/>
<path d="M2313.34 1166.81H1758.22V913.346H2063.67V1165.09H2313.34V1166.81Z" fill="#C4D9ED"/>
<path d="M1758.23 1166.81H1746.93V866.425H1758.23V913.345V1166.81Z" fill="#B6CFE5"/>
<path d="M2422.79 1166.81H2369.22V1165.09H2422.79V1166.81ZM2396.2 873.691H2370.86V863.251C2379.18 866.744 2387.66 870.25 2396.2 873.691Z" fill="#B6CFE5"/>
<path d="M2063.67 1165.09V913.344V806.81H2189.77H2249.26C2284.62 824.611 2325.84 844.265 2370.87 863.252V873.691H2063.67V907.358V1165.09Z" fill="#CEE1F3"/>
<path d="M2446.91 1165.09H2422.79H2369.22H2313.35H2063.67V907.356V957.449H2446.91V1165.09ZM2408.3 1079.44V1107.18H2427.97V1079.44H2408.3ZM2373.52 1079.44V1107.18H2393.2V1079.44H2373.52ZM2339.4 1079.44V1107.18H2359.1V1079.44H2339.4ZM2303.42 1079.44V1107.18H2323.09V1079.44H2303.42ZM2266.63 1079.44V1107.18H2286.3V1079.44H2266.63ZM2231.44 1079.44V1107.18H2251.12V1079.44H2231.44ZM2196.67 1079.44V1107.18H2216.35V1079.44H2196.67ZM2162.55 1079.44V1107.18H2182.24V1079.44H2162.55ZM2126.58 1079.44V1107.18H2146.26V1079.44H2126.58ZM2089.76 1079.44V1107.18H2109.45V1079.44H2089.76ZM2408.3 1031.24V1058.97H2427.97V1031.24H2408.3ZM2373.52 1031.24V1058.97H2393.2V1031.24H2373.52ZM2339.4 1031.24V1058.97H2359.1V1031.24H2339.4ZM2303.42 1031.24V1058.97H2323.09V1031.24H2303.42ZM2266.63 1031.24V1058.97H2286.3V1031.24H2266.63ZM2231.44 1031.24V1058.97H2251.12V1031.24H2231.44ZM2196.67 1031.24V1058.97H2216.35V1031.24H2196.67ZM2162.55 1031.24V1058.97H2182.24V1031.24H2162.55ZM2126.58 1031.24V1058.97H2146.26V1031.24H2126.58ZM2089.76 1031.24V1058.97H2109.45V1031.24H2089.76ZM2408.3 982.277V1010.02H2427.97V982.277H2408.3ZM2373.52 982.277V1010.02H2393.2V982.277H2373.52ZM2339.4 982.277V1010.02H2359.1V982.277H2339.4ZM2303.42 982.277V1010.02H2323.09V982.277H2303.42ZM2266.63 982.277V1010.02H2286.3V982.277H2266.63ZM2231.44 982.277V1010.02H2251.12V982.277H2231.44ZM2196.67 982.277V1010.02H2216.35V982.277H2196.67ZM2162.55 982.277V1010.02H2182.24V982.277H2162.55ZM2126.58 982.277V1010.02H2146.26V982.277H2126.58ZM2089.76 982.277V1010.02H2109.45V982.277H2089.76Z" fill="#CEE1F3"/>
<path d="M2446.91 957.449H2063.67V907.356V873.691H2370.87H2396.21C2412.71 880.317 2429.63 886.81 2446.91 893.049V957.449ZM2387.75 897.222V925.837H2404.28V897.222H2387.75ZM2257.12 897.222V925.837H2273.65V897.222H2257.12ZM2092.92 897.222V925.837H2109.45V897.222H2092.92Z" fill="#C4D9ED"/>
<path d="M2109.44 1010.03H2089.76V982.279H2109.44V1010.03Z" fill="#C4D9ED"/>
<path d="M2146.25 1010.03H2126.58V982.278H2146.25V1010.03Z" fill="#C4D9ED"/>
<path d="M2182.25 1010.02H2162.55V982.277H2182.25V1010.02Z" fill="#C4D9ED"/>
<path d="M2216.34 1010.03H2196.67V982.278H2216.34V1010.03Z" fill="#C4D9ED"/>
<path d="M2251.12 1010.03H2231.44V982.279H2251.12V1010.03Z" fill="#C4D9ED"/>
<path d="M2286.3 1010.02H2266.62V982.276H2286.3V1010.02Z" fill="#C4D9ED"/>
<path d="M2323.1 1010.02H2303.41V982.277H2323.1V1010.02Z" fill="#C4D9ED"/>
<path d="M2359.09 1010.02H2339.4V982.276H2359.09V1010.02Z" fill="#C4D9ED"/>
<path d="M2393.21 1010.02H2373.53V982.276H2393.21V1010.02Z" fill="#C4D9ED"/>
<path d="M2427.98 1010.02H2408.29V982.276H2427.98V1010.02Z" fill="#C4D9ED"/>
<path d="M2109.44 1058.97H2089.76V1031.24H2109.44V1058.97Z" fill="#C4D9ED"/>
<path d="M2146.25 1058.97H2126.58V1031.24H2146.25V1058.97Z" fill="#C4D9ED"/>
<path d="M2182.25 1058.97H2162.55V1031.24H2182.25V1058.97Z" fill="#C4D9ED"/>
<path d="M2216.34 1058.97H2196.67V1031.24H2216.34V1058.97Z" fill="#C4D9ED"/>
<path d="M2251.12 1058.97H2231.44V1031.24H2251.12V1058.97Z" fill="#C4D9ED"/>
<path d="M2286.3 1058.97H2266.62V1031.24H2286.3V1058.97Z" fill="#C4D9ED"/>
<path d="M2323.1 1058.97H2303.41V1031.24H2323.1V1058.97Z" fill="#C4D9ED"/>
<path d="M2359.09 1058.97H2339.4V1031.24H2359.09V1058.97Z" fill="#C4D9ED"/>
<path d="M2393.21 1058.97H2373.53V1031.24H2393.21V1058.97Z" fill="#C4D9ED"/>
<path d="M2427.98 1058.97H2408.29V1031.24H2427.98V1058.97Z" fill="#C4D9ED"/>
<path d="M2109.44 1107.19H2089.76V1079.44H2109.44V1107.19Z" fill="#C4D9ED"/>
<path d="M2146.25 1107.18H2126.58V1079.44H2146.25V1107.18Z" fill="#C4D9ED"/>
<path d="M2182.25 1107.18H2162.55V1079.44H2182.25V1107.18Z" fill="#C4D9ED"/>
<path d="M2216.34 1107.19H2196.67V1079.44H2216.34V1107.19Z" fill="#C4D9ED"/>
<path d="M2251.12 1107.19H2231.44V1079.44H2251.12V1107.19Z" fill="#C4D9ED"/>
<path d="M2286.3 1107.18H2266.62V1079.44H2286.3V1107.18Z" fill="#C4D9ED"/>
<path d="M2323.1 1107.18H2303.41V1079.44H2323.1V1107.18Z" fill="#C4D9ED"/>
<path d="M2359.09 1107.18H2339.4V1079.44H2359.09V1107.18Z" fill="#C4D9ED"/>
<path d="M2393.21 1107.18H2373.53V1079.44H2393.21V1107.18Z" fill="#C4D9ED"/>
<path d="M2427.98 1107.18H2408.29V1079.44H2427.98V1107.18Z" fill="#C4D9ED"/>
<path d="M2109.44 925.839H2092.91V897.226H2109.44V925.839Z" fill="#B6CFE5"/>
<path d="M2273.66 925.838H2257.11V897.225H2273.66V925.838Z" fill="#B6CFE5"/>
<path d="M2404.27 925.836H2387.74V897.224H2404.27V925.836Z" fill="#B6CFE5"/>
<path d="M3585.93 1173H5.06673C2.8296 1173 1 1171.08 1 1168.73V1167.28C1 1164.93 2.8296 1163 5.06673 1163H3585.93C3588.18 1163 3590 1164.93 3590 1167.28V1168.73C3590 1171.08 3588.18 1173 3585.93 1173Z" fill="#2E3552"/>
<path d="M3298.99 1162.57H3175.84C3169.25 1156.98 3180.4 1144.26 3192.06 1143.41C3197.13 1143.03 3203.55 1144.09 3210.86 1145.64C3212.57 1123.13 3222.24 1021.94 3258.72 1026.01C3299.73 1030.56 3258.72 1070.57 3247.12 1094.25C3238.53 1111.8 3229.46 1136.96 3225.33 1148.84C3228.65 1149.56 3232.11 1150.27 3235.63 1150.9C3241.06 1134.22 3261.27 1078.08 3287.01 1081.36C3317.2 1085.18 3305.07 1107.69 3283.66 1121.05C3267.96 1130.88 3248.69 1144.84 3239.51 1151.58C3247.28 1152.85 3255.37 1153.7 3263.61 1153.52C3284.7 1153.01 3294.99 1159.24 3298.99 1162.57Z" fill="#A8D29F"/>
<path d="M244.468 1157.38C238.684 1148.3 221.28 1124.73 198.097 1127.85C172.84 1131.25 225.993 1147.9 242.267 1157.46C238.653 1157.5 235.545 1157.22 233.264 1156.41C222.384 1152.53 203.752 1159.97 197.795 1162.57H301.369C300.652 1160.1 298.788 1156.05 293.963 1153.1C292.263 1152.06 288.844 1151.92 284.431 1152.25C290.589 1145 294.867 1121.8 277.721 1127.77C265.197 1132.13 265.232 1146.3 266.46 1154.69C263.796 1155.1 261.095 1155.53 258.425 1155.9C253.268 1129.62 235.029 1052.61 198.061 1050.54C160.584 1048.46 229.841 1130.44 252.901 1156.64C249.947 1157 247.101 1157.26 244.468 1157.38Z" fill="#A8D29F"/>
<path d="M714.075 671.652C661.829 671.652 619.489 629.478 619.489 577.238C619.489 564.452 622.045 552.305 626.679 541.118C640.899 506.772 674.611 482.652 714.075 482.652C766.321 482.652 808.661 524.985 808.661 577.238C808.661 622.452 777.027 659.998 734.685 669.265C728.136 670.865 721.105 671.652 714.075 671.652ZM714.075 377.038C665.823 377.038 621.407 393.972 586.576 422.252C540.88 459.478 511.8 516.038 511.8 579.305C511.8 690.998 714.075 939.278 714.075 939.278C714.075 939.278 805.945 826.478 865.701 718.798C894.78 666.705 916.349 615.732 916.349 579.305C916.349 467.625 825.757 377.038 714.075 377.038Z" fill="#F99746"/>
<path d="M3278.07 804.264C3254.89 804.264 3236.1 785.477 3236.1 762.304C3236.1 739.131 3254.89 720.344 3278.07 720.344C3301.24 720.344 3320.03 739.131 3320.03 762.304C3320.03 785.477 3301.24 804.264 3278.07 804.264ZM3278.07 673.452C3228.48 673.452 3188.29 713.638 3188.29 763.225C3188.29 812.798 3278.07 923.024 3278.07 923.024C3278.07 923.024 3367.84 812.798 3367.84 763.225C3367.84 713.638 3327.65 673.452 3278.07 673.452Z" fill="#F99746"/>
<path d="M303.619 847.065C290.928 847.065 280.64 836.785 280.64 824.092C280.64 811.398 290.928 801.105 303.619 801.105C316.31 801.105 326.597 811.398 326.597 824.092C326.597 836.785 316.31 847.065 303.619 847.065ZM303.619 775.425C276.467 775.425 254.458 797.438 254.458 824.585C254.458 851.745 303.619 912.105 303.619 912.105C303.619 912.105 352.78 851.745 352.78 824.585C352.78 797.438 330.77 775.425 303.619 775.425Z" fill="#699FF0"/>
<path d="M803.611 1162.57C803.611 1162.57 838.853 1057.41 939.801 1037.17C1040.75 1016.93 1115.49 1095.97 1205.41 1065.16C1295.36 1034.35 1437.12 871.292 1605.85 990.452C1774.58 1109.63 1763.51 1143.57 1869.95 1115.73C1976.36 1087.89 2000.71 1162.57 2000.71 1162.57H803.611Z" fill="#A8D29F"/>
<path d="M907.249 1063.64C907.249 1063.64 833.624 986.438 796.012 1007.13C758.4 1027.84 907.249 1063.64 907.249 1063.64Z" fill="#A8D29F"/>
<path d="M888.471 1083.16C888.471 1083.16 820.601 1061.04 803.612 1072.09C786.623 1083.16 888.471 1083.16 888.471 1083.16Z" fill="#A8D29F"/>
<path d="M1104.39 1076.08C1104.39 1076.08 1151.03 971.438 1167.21 990.478C1183.39 1009.52 1104.39 1076.08 1104.39 1076.08Z" fill="#A8D29F"/>
<path d="M1092.96 1069C1092.96 1069 1112 992.385 1083.45 997.145C1054.89 1001.9 1092.96 1069 1092.96 1069Z" fill="#A8D29F"/>
<path d="M2394.24 766.021L2386.13 759.409L2494.75 617.436L2533.96 615.809L2394.24 766.021Z" fill="#699FF0"/>
<path d="M2252.28 766.027L2245.57 759.412L2335.45 617.44L2367.89 615.813L2252.28 766.027Z" fill="#699FF0"/>
<path d="M1588.96 396.012C1588.96 369.065 1610.28 347.225 1636.6 347.225C1662.91 347.225 1684.24 369.065 1684.24 396.012C1684.24 422.958 1662.91 444.798 1636.6 444.798C1610.28 444.798 1588.96 422.958 1588.96 396.012Z" fill="#699FF0"/>
<path d="M2193.29 1053.68H1708.89C1703.63 1053.68 1699.32 1049.33 1699.32 1044.04V998.25C1699.32 992.943 1703.63 988.609 1708.89 988.609H2136.78C2142.05 988.609 2146.36 992.943 2146.36 998.25L2193.29 1053.68Z" fill="#699FF0"/>
<path d="M2197.56 1017.81C2197.56 937.862 2262.36 873.049 2342.31 873.049C2422.27 873.049 2487.08 937.862 2487.08 1017.81C2487.08 1097.76 2422.27 1162.57 2342.31 1162.57C2262.36 1162.57 2197.56 1097.76 2197.56 1017.81Z" fill="#2B478B"/>
<path d="M2268.52 1017.82C2268.52 977.065 2301.56 944.025 2342.32 944.025C2383.06 944.025 2416.1 977.065 2416.1 1017.82C2416.1 1058.57 2383.06 1091.61 2342.32 1091.61C2301.56 1091.61 2268.52 1058.57 2268.52 1017.82Z" fill="#85B2EF"/>
<path d="M1598.23 813.478C1577.79 806.972 1556.03 803.478 1533.48 803.478C1517.55 803.478 1502 805.225 1487.07 808.545C1401.33 827.545 1334.76 898.052 1321.55 985.785C1319.01 1002.65 1332.15 1017.81 1349.2 1017.81H1350.15C1359.33 1017.81 1366.93 1010.8 1367.81 1001.64C1375.99 917.411 1447.16 851.358 1533.48 851.358C1559.25 851.358 1583.69 857.238 1605.49 867.745C1661.32 894.652 1699.93 951.812 1699.93 1017.81H1747.81C1747.81 922.185 1684.87 840.985 1598.23 813.478Z" fill="#699FF0"/>
<path d="M1820.36 988.612L1747.81 1017.81C1697.59 920.145 1646.29 872.211 1602.43 848.571C1523.51 806.025 1468.57 842.065 1487.07 808.545L1622.45 522.878C1635.15 505.251 1651.68 491.852 1670.16 483.105C1690.25 473.612 1712.65 469.612 1734.92 471.652C1760.75 474.038 1777.63 500.105 1769.4 524.705C1751.68 577.718 1744.87 630.998 1744.87 681.585C1744.87 849.972 1820.36 988.612 1820.36 988.612Z" fill="#699FF0"/>
<path d="M1746.4 504.705L1691.77 483.825C1684.33 483.825 1670.16 490.545 1670.16 483.105L1678.25 349.678C1678.25 342.252 1684.33 336.159 1691.77 336.159H1726.99C1734.43 336.159 1764.23 350.425 1762.12 377.119L1771.49 511.612C1771.49 519.052 1753.84 504.705 1746.4 504.705Z" fill="#699FF0"/>
<path d="M2676.98 622.413H2313.12C2302.58 622.413 2293.98 613.801 2293.98 603.267V590.133C2293.98 579.599 2302.58 570.974 2313.12 570.974H2676.98C2687.53 570.974 2696.13 579.599 2696.13 590.133V603.267C2696.13 613.801 2687.53 622.413 2676.98 622.413Z" fill="#699FF0"/>
<path d="M1388.73 1017.81C1388.73 937.865 1453.55 873.052 1533.49 873.052C1613.44 873.052 1678.25 937.865 1678.25 1017.81C1678.25 1097.76 1613.44 1162.57 1533.49 1162.57C1453.55 1162.57 1388.73 1097.76 1388.73 1017.81Z" fill="#2B478B"/>
<path d="M1607.28 1017.81C1607.28 1030.25 1604.2 1041.96 1598.77 1052.22C1598.41 1052.89 1598.05 1053.54 1597.67 1054.2C1585.01 1076.54 1561.01 1091.61 1533.49 1091.61C1492.73 1091.61 1459.69 1058.57 1459.69 1017.81C1459.69 987.105 1478.45 960.785 1505.13 949.705C1505.4 949.572 1505.69 949.465 1505.97 949.345C1514.48 945.918 1523.77 944.038 1533.49 944.038C1574.24 944.038 1607.28 977.065 1607.28 1017.81Z" fill="#AFCDFB"/>
<path d="M2063.69 726.243C2063.69 726.243 2120.12 851.962 1994.04 988.615H2285.04L2245.56 689.443L2063.69 726.243Z" fill="#699FF0"/>
<path d="M2634.12 1034.53C2634.12 1039.8 2631.97 1044.58 2628.49 1048.06C2625.04 1051.52 2620.24 1053.68 2614.99 1053.68H2150.59C2140.06 1053.68 2131.43 1045.06 2131.43 1034.53L2137.6 730.797L2293.99 721.21C2502.28 721.21 2634.12 826.211 2634.12 1034.53Z" fill="#699FF0"/>
<path d="M1684.24 393.238C1684.24 397.945 1683.8 402.545 1682.97 407.012C1676.51 441.812 1645.97 468.145 1609.32 468.145V318.345C1650.68 318.345 1684.24 351.878 1684.24 393.238Z" fill="#F99746"/>
<path d="M1802.47 403.358C1802.19 403.358 1799.07 402.745 1798.77 402.692L1716.37 379.825C1713.09 379.185 1710.84 375.132 1711.32 370.772C1711.79 366.412 1714.83 363.385 1718.11 364.038L1800.71 380.158C1803.99 380.798 1806.59 385.772 1807.36 390.052C1808.65 397.238 1805.39 403.358 1802.47 403.358Z" fill="#2B478B"/>
<path d="M1603.33 854.358C1604.08 858.972 1604.8 863.438 1605.49 867.745C1605.28 867.652 1605.07 867.531 1604.85 867.438C1583.21 857.132 1559 851.358 1533.48 851.358C1447.16 851.358 1375.99 917.411 1367.81 1001.64C1366.93 1010.8 1359.33 1017.81 1350.15 1017.81H1349.2C1332.15 1017.81 1319.01 1002.65 1321.55 985.785C1334.71 898.345 1400.88 828.025 1486.2 808.758C1486.49 808.678 1486.77 808.612 1487.07 808.545L1622.45 522.878C1635.15 505.251 1651.68 491.852 1670.16 483.105C1647.08 521.945 1583.41 646.118 1598.23 813.478C1599.25 824.972 1600.64 836.665 1602.43 848.571C1602.73 850.492 1603.01 852.425 1603.33 854.358Z" fill="#F99746"/>
<path d="M2374.69 666.892V712.012C2374.69 719.825 2368.3 726.24 2360.46 726.24H2063.7C2055.89 726.24 2049.48 719.825 2049.48 712.012V666.892C2049.48 659.053 2055.89 652.651 2063.7 652.651H2360.46C2368.3 652.651 2374.69 659.053 2374.69 666.892Z" fill="#F99746"/>
<path d="M2597.33 1053.68H2150.59C2150.59 1053.68 2123.31 888.265 2223.87 832.413C2248.09 818.959 2278.5 814.333 2311.65 817.573C2416.1 827.8 2547.65 916.307 2597.33 1053.68Z" fill="#578DDD"/>
<path d="M1682.97 407.012C1676.51 441.812 1645.97 468.145 1609.32 468.145V426.345C1631.33 427.225 1663.04 424.825 1682.97 407.012Z" fill="#ED7D2B"/>
<path d="M2280.74 726.241H2063.68C2055.87 726.241 2049.46 719.828 2049.46 712.014V666.895C2049.46 659.055 2055.87 652.655 2063.68 652.655H2212.39C2225.31 670.895 2249.6 701.828 2280.74 726.241Z" fill="#ED7D2B"/>
<path d="M2597.33 1053.68H2411.78C2299.78 996.839 2306.64 859.734 2311.65 817.573C2416.1 827.8 2547.65 916.307 2597.33 1053.68Z" fill="#5C96E3"/>
<path d="M1597.67 1054.2C1585.01 1076.54 1561.01 1091.61 1533.49 1091.61C1492.73 1091.61 1459.69 1058.57 1459.69 1017.81C1459.69 987.105 1478.45 960.785 1505.13 949.705C1511.55 981.638 1532.2 1040.81 1597.67 1054.2Z" fill="#85B2EF"/>
<path d="M1603.33 854.358C1604.08 858.972 1604.8 863.438 1605.49 867.745C1605.28 867.652 1605.07 867.532 1604.85 867.438C1578.12 842.718 1521.64 820.825 1486.2 808.758C1486.49 808.678 1486.77 808.612 1487.07 808.545L1622.45 522.878C1635.15 505.251 1651.68 491.851 1670.16 483.105C1647.08 521.945 1583.41 646.118 1598.23 813.478C1599.25 824.972 1600.64 836.665 1602.43 848.571C1602.73 850.491 1603.01 852.425 1603.33 854.358Z" fill="#ED7D2B"/>
<path d="M2323.85 570.976H2555.12V380.27H2323.85V570.976Z" fill="#D3671E"/>
<path d="M2670.77 380.263V570.97H2439.5V380.263H2670.77Z" fill="#F1A34F"/>
<path d="M2323.99 522.609H2360.63L2357.4 512.289L2360.63 504.93H2323.99V522.609Z" fill="#F1A34F"/>
<path d="M2670.77 506.703V570.97H2439.5V380.263H2480.47L2670.77 506.703Z" fill="#E78B37"/>
<path d="M2670.77 423.036H2634.13L2637.36 412.729L2634.13 405.356H2670.77V423.036Z" fill="#E78B37"/>
<path d="M2670.77 540.29H2634.13L2637.36 529.97L2634.13 522.608H2670.77V540.29Z" fill="#F1A34F"/>
<path d="M2089.49 207.45C2129.47 223.687 2202.57 188.973 2202.57 188.973C2202.57 188.973 2178.3 167.493 2173.68 126.818C2173.45 124.768 2173.28 122.676 2173.14 120.535C2168.92 119.036 2160.99 116.207 2152.47 113.186L2117.07 137.298C2117.07 137.298 2116.21 149.162 2117.46 169.914C2117.68 173.536 2117.96 177.427 2118.33 181.583C2099.96 189.83 2089.49 207.45 2089.49 207.45Z" fill="#FFB27D"/>
<path d="M2117.07 137.287C2117.07 137.287 2116.22 149.152 2117.47 169.903C2149.7 164.047 2167.44 138.016 2173.7 126.809C2173.46 124.758 2173.29 122.661 2173.16 120.518C2168.94 119.023 2161 116.201 2152.49 113.179L2117.07 137.287Z" fill="#ED975D"/>
<path d="M2110.54 154.573C2110.54 154.573 2179.38 152.329 2177.34 109.463C2175.28 66.5978 2182.79 37.443 2138.72 37.0716C2094.67 36.6848 2086.92 53.4442 2084.14 67.9287C2081.33 82.3978 2092.55 154.051 2110.54 154.573Z" fill="#FFB27D"/>
<path d="M2173.7 126.811C2173.7 126.811 2176.38 112.559 2168.64 103.146C2168.64 103.146 2173.62 89.1682 2168.26 86.0359C2162.89 82.9037 2160.07 94.8404 2157.73 92.5964C2155.36 90.3524 2144.93 79.787 2141.74 65.8243C2138.53 51.8772 2090.78 61.8817 2085.14 63.5647C2079.52 65.2477 2116.82 -4.39424 2157.12 12.1085C2197.42 28.5957 2200.46 49.2904 2195.8 66.058C2191.14 82.8101 2191.56 123.363 2173.7 126.811Z" fill="#2B478B"/>
<path d="M2239.56 535.921C2239.56 535.921 2234.78 620.04 2215.63 644C2196.47 667.961 1829.4 658.666 1829.4 658.666C1829.4 658.666 1827.81 604.72 1842.17 590.855C1856.52 576.987 1923.57 537.147 2137.58 514.574L2239.56 535.921Z" fill="#6BB7BF"/>
<path d="M2244.46 359.852C2238.46 432.106 2246.37 542 2239.56 561.039C2233.71 577.467 2166.93 567.693 2140.3 562.226C2130.43 560.185 2118.48 557.292 2106.14 553.866C2071.72 544.306 2034.22 530.64 2030.22 520.493C2030.06 520.092 2029.92 519.706 2029.84 519.32C2029.47 517.853 2029.55 516.466 2029.9 515.08C2030.89 511.252 2033.99 507.2 2035.78 500.16C2036.4 497.68 2036.86 494.841 2037.02 491.507C2037.66 478.413 2037.61 463.213 2038.07 446.841C2038.1 445.334 2038.17 443.812 2038.21 442.307C2038.25 440.253 2038.26 438.04 2038.5 436.013L2038.53 435.266C2038.53 434.88 2038.55 434.494 2038.56 434.12C2039.14 413.92 2040.31 392.72 2041.66 371.667C2042.11 365.106 2042.55 358.573 2043.08 352.133C2043.24 349.841 2043.43 347.587 2043.6 345.332C2043.95 341.12 2044.3 336.934 2044.7 332.817C2047.69 300.45 2051.74 271.659 2057.1 253.466C2065.84 223.794 2085.13 204.451 2102.67 190.278L2115.39 180.497C2129.56 183.274 2146.31 181.422 2161.48 174.988C2177.87 167.983 2183.53 162.972 2186.4 164.87C2224.28 191.109 2251.53 271.516 2244.46 359.852Z" fill="#F99746"/>
<path d="M1961.48 935.399C1961.48 935.399 1958.23 987.759 1948.11 988.52C1946.75 988.613 1896.72 988.613 1896.72 988.613L1832.86 988.239C1832.86 988.239 1833.27 972.852 1851.94 969.6C1870.61 966.346 1901.85 953.225 1913.17 928.56C1925.07 902.6 1961.48 935.399 1961.48 935.399Z" fill="#1C4575"/>
<path d="M1974.82 938.814C1974.82 938.814 1962.47 948.308 1937.32 949.521C1930.83 949.827 1924.9 949.494 1919.7 948.827C1905.83 947.068 1897.17 943.068 1897.17 943.068L1829.4 658.655C1829.4 658.655 1902.8 594.509 1941.11 634.403C1946.12 639.602 1950.37 648.614 1954.01 660.375C1978.3 738.787 1974.82 938.814 1974.82 938.814Z" fill="#6BB7BF"/>
<path d="M2137.58 304.936C2137.58 304.936 2090.06 478.947 2035.79 500.16C2036.4 497.68 2036.87 494.841 2037.02 491.508C2037.64 478.414 2037.61 463.215 2038.07 446.841C2038.1 445.335 2038.16 443.814 2038.21 442.307C2038.24 440.254 2038.27 438.042 2038.51 436.014L2038.53 435.268C2038.53 434.88 2038.54 434.494 2038.56 434.121C2039.13 413.92 2040.32 392.721 2041.66 371.667C2042.1 365.108 2042.55 358.575 2043.07 352.134C2066.98 323.259 2099.39 302.511 2137.58 304.936Z" fill="#ED7D2B"/>
<path d="M1852.5 371.971C1852.5 371.971 1831.8 373.557 1826.48 371.971C1821.16 370.371 1796.14 355.477 1787.11 358.664C1778.07 361.85 1755.18 385.263 1761.04 395.904C1761.04 395.904 1771.68 396.17 1781.52 386.065C1791.36 375.958 1802 382.864 1800.95 384.197C1799.89 385.53 1784.46 391.65 1787.11 394.304C1789.77 396.97 1809.99 396.437 1814.78 393.251C1819.56 390.05 1855.2 394.037 1855.2 394.037L1852.5 371.971Z" fill="#FFB27D"/>
<path d="M2137.58 213.166C2137.58 213.166 2008.89 322.882 1975 333.459C1941.12 344.04 1821.43 367.306 1821.43 367.306C1821.43 367.306 1818.13 395.64 1829.34 406.278C1829.34 406.278 1983.15 397.359 2002.31 393.307C2021.46 389.252 2164.15 315.309 2175.8 309.721C2187.44 304.137 2185.63 204.121 2137.58 213.166Z" fill="#F99746"/>
<path d="M1974.82 938.814C1974.82 938.814 1962.47 948.308 1937.32 949.521C1930.83 949.827 1924.9 949.494 1919.7 948.827C1958.35 899.934 1954.01 660.375 1954.01 660.375C1978.3 738.787 1974.82 938.814 1974.82 938.814Z" fill="#5AA9AD"/>
<path d="M2205.96 68.8753V69.5312C2205.96 71.3428 2205.13 72.8889 2203.96 73.5448C2203.55 73.7635 2203.11 73.8884 2202.69 73.8884H2039.51C2037.71 73.8884 2036.25 71.9362 2036.25 69.5312V68.8753C2036.25 66.4858 2037.71 64.5182 2039.51 64.5182L2075.96 59.8486C2079.35 32.7843 2097.34 10.6861 2121.11 3.0806H2121.12C2126.93 1.20654 2133.06 0.222702 2139.4 0.222702C2172.88 0.222702 2200.32 27.8805 2203.18 63.1282C2203.19 63.5499 2203.24 63.956 2203.27 64.362C2203.68 64.6744 2203.91 64.8617 2203.96 64.8774C2205.13 65.5333 2205.96 67.0949 2205.96 68.8753Z" fill="#F99746"/>
<path d="M2150.8 63.1531C2162.97 -1.19638 2122.47 2.92199 2121.11 3.09359C2126.92 1.2216 2133.03 0.238842 2139.38 0.238842C2172.86 0.238842 2200.3 27.8974 2203.15 63.1531H2150.8Z" fill="#ED7D2B"/>
<path d="M2360.39 1162.57C2360.39 1162.57 2494.32 1128.82 2532.12 1088.01C2569.92 1047.18 2602.57 1093.45 2578.07 1119.29C2553.58 1145.14 2360.39 1162.57 2360.39 1162.57Z" fill="#EDF4FF"/>
<path d="M2892.28 1071.84H2704.54C2699.9 1071.84 2696.13 1068.05 2696.13 1063.43C2696.13 1058.8 2699.9 1055.01 2704.54 1055.01H2892.28C2896.89 1055.01 2900.68 1058.8 2900.68 1063.43C2900.68 1068.05 2896.89 1071.84 2892.28 1071.84Z" fill="#EDF4FF"/>
<path d="M2802.81 1034.31H2700.69C2698.2 1034.31 2696.14 1032.24 2696.14 1029.73C2696.14 1027.21 2698.2 1025.16 2700.69 1025.16H2802.81C2805.32 1025.16 2807.38 1027.21 2807.38 1029.73C2807.38 1032.24 2805.32 1034.31 2802.81 1034.31Z" fill="#EDF4FF"/>
<path d="M865.701 718.798C805.945 826.478 714.075 939.278 714.075 939.278C714.075 939.278 511.8 690.998 511.8 579.305C511.8 516.038 540.88 459.478 586.576 422.252C594.244 458.838 606.707 500.705 626.679 541.118C622.045 552.305 619.489 564.452 619.489 577.238C619.489 629.478 661.829 671.652 714.075 671.652C721.105 671.652 728.136 670.865 734.685 669.265C769.996 693.385 813.136 711.118 865.701 718.798Z" fill="#ED7D2B"/>
</svg>
