<svg width="555" height="647" viewBox="0 0 555 647" fill="none" xmlns="http://www.w3.org/2000/svg">
<path d="M540.547 38.9199C516.333 56.1065 476.933 38.7599 467.827 75.9065C467.507 77.2265 467.267 78.5999 467.547 79.9199C470.32 92.8265 490.68 98.6799 499.667 106.613C531.947 135.08 519.88 190.56 481.04 205.987C453.16 217.06 422.247 213.536 390.973 210.013C368.588 207.491 346.017 204.968 324.247 207.8C313.767 209.16 303.02 212.027 295.727 218.613C288.433 225.2 285.873 236.307 292.367 243.573C295.62 247.227 300.593 249.44 305.54 251.213C329.472 259.8 355.993 260.72 381.22 265.773C408.66 271.253 444.273 285.293 456.46 313.36C474.107 354.04 436.913 385.827 402.887 399.787C372.193 412.373 337.62 415.975 303.673 418.76C240.18 423.947 169.805 429.64 107.033 415.587C65.6734 406.32 23.7267 397.093 7.15335 353.827C-4.17999 324.24 0.206668 288.933 17.0067 262.28C32.9 237.04 58.1387 219.093 85.74 208.56C112.487 198.347 141.18 188.747 169.38 183.72C210.487 176.4 256.593 181.44 292.913 157.28C351.472 118.333 260.18 99.1466 230.047 95.0666C186.701 89.1866 142.18 92.1599 99.1 85.5732C86.42 83.6265 69.8201 79.3999 54.9267 72.4132C31.9001 61.5999 12.94 44.1466 18.8334 18.2266C20.4067 11.2933 23.9134 5.23989 28.5934 -0.000104911H550.013C552.173 3.05323 553.68 6.4132 554.387 10.1065C556.44 20.8799 550.28 31.9999 540.547 38.9199" fill="#F7FAFC"/>
<path d="M43.0584 130.785C43.0358 131.31 43.0304 131.846 43.0344 132.396C43.4264 165.965 121.742 184.452 142.178 164.262C148.237 158.277 150.593 149.156 149.445 140.718C145.188 109.437 120.302 105.53 94.9651 105.502C76.0211 105.482 44.0744 105.764 43.0584 130.785" fill="#F7FAFC"/>
<path d="M429.256 458.244C429.256 458.244 426.163 470.029 419.563 485.416C410.549 506.416 395.016 534.136 371.883 547.884C301.616 589.631 178.776 575.884 129.003 547.884C79.2293 519.884 66.5093 458.244 66.5093 458.244H429.256" fill="#51748E"/>
<path d="M429.256 458.244C429.256 458.244 426.163 470.029 419.563 485.416C410.136 502.536 397.069 520.164 379.949 530.337C307.829 573.189 181.749 559.071 130.656 530.337C97.8959 511.91 80.7759 479.284 72.7092 458.244H429.256" fill="#577D98"/>
<path d="M433.216 438.551C433.216 445.303 431.852 451.889 429.251 458.245C411.621 501.447 337.097 533.884 247.875 533.884C158.653 533.884 84.1426 501.447 66.5146 458.245C63.9133 451.889 62.5493 445.303 62.5493 438.551C62.5493 385.899 145.523 343.217 247.875 343.217C350.229 343.217 433.216 385.899 433.216 438.551Z" fill="#496980"/>
<path d="M419.949 438.337C419.949 444.217 418.683 449.95 416.269 455.482C399.908 493.096 330.749 521.337 247.949 521.337C165.149 521.337 96.0026 493.096 79.6426 455.482C77.2293 449.95 75.9626 444.217 75.9626 438.337C75.9626 392.497 152.963 355.337 247.949 355.337C342.936 355.337 419.949 392.497 419.949 438.337" fill="#374C5F"/>
<path d="M416.269 455.482C399.909 493.096 330.751 521.337 247.949 521.337C165.149 521.337 96.0026 493.096 79.6426 455.482C96.0026 417.869 165.149 389.63 247.949 389.63C330.751 389.63 399.909 417.869 416.269 455.482Z" fill="#3C5569"/>
<path d="M367.081 537.124L433.216 584.39L453.216 564.188L393.216 509.217C393.216 509.217 369.216 514.105 367.081 537.124" fill="#8CA09D"/>
<path d="M455.187 554C455.187 554 544.825 618.171 523.359 640.764C501.892 663.359 424 586.89 424 586.89C424 586.89 427.684 558.743 455.187 554Z" fill="#E76D1B"/>
<path d="M522.239 638.428L440.459 566.873C441.125 563.761 454.904 557.095 454.904 557.095C454.904 557.095 495.572 590.428 511.799 608.207C528.012 625.984 522.239 638.428 522.239 638.428" fill="#E97B2C"/>
<path d="M429.256 563.217L379.216 521.337C380.549 516.791 393.882 514.217 393.882 514.217L439.216 554.344C432.549 557.471 429.256 563.217 429.256 563.217" fill="#98AAA7"/>
<path d="M148.327 551.884C148.327 551.884 133.66 546.995 126.993 542.105L126.069 527.603C127.563 528.544 129.092 529.457 130.656 530.337C135.596 533.115 141.235 535.756 147.46 538.222L148.327 551.884" fill="#628399"/>
<path d="M147.46 538.222C141.234 535.756 135.596 533.114 130.656 530.337C129.092 529.457 127.562 528.544 126.069 527.602L125.216 514.217C125.216 514.217 139.882 522.55 146.549 523.884L147.46 538.222" fill="#688AA2"/>
<path d="M218.173 567.241C194.635 567.24 156.216 554.343 156.216 554.343L155.436 541.177C173.705 547.505 195.981 552.41 219.883 555.11V567.217C219.321 567.233 218.753 567.241 218.173 567.241" fill="#628399"/>
<path d="M219.883 555.11C195.981 552.41 173.705 547.505 155.436 541.177L154.549 526.217C183.629 534.233 219.883 536.217 219.883 536.217V555.11Z" fill="#688AA2"/>
<path d="M109.135 283.425C106.712 283.682 104.1 285.95 102.412 287.081C99.4359 289.073 96.2159 290.698 92.8425 291.901C93.7412 293.66 96.1799 294.864 98.0732 295.424C99.9679 295.985 101.988 295.956 103.949 295.722C104.913 295.608 105.884 295.441 106.771 295.045C109.673 293.75 115.199 287.505 112.023 284.416C111.149 283.566 110.159 283.316 109.135 283.425" fill="#366F2E"/>
<path d="M404.25 63.5785C401.873 64.1145 399.541 66.6692 397.994 67.9879C395.27 70.3092 392.259 72.2972 389.048 73.8812C390.143 75.5238 392.704 76.4385 394.649 76.7758C396.596 77.1132 398.6 76.8519 400.521 76.3932C401.466 76.1665 402.41 75.8892 403.246 75.3945C405.978 73.7732 410.746 66.9305 407.234 64.2278C406.268 63.4865 405.254 63.3518 404.25 63.5785" fill="#366F2E"/>
<path d="M403.403 96.745C401.031 98.369 399.591 102.189 398.472 104.31C396.499 108.046 394.065 111.54 391.237 114.678C393.155 116.001 396.361 115.885 398.641 115.405C400.923 114.925 403.005 113.762 404.912 112.42C405.848 111.761 406.761 111.044 407.461 110.136C409.749 107.166 411.987 97.5824 406.956 96.1544C405.575 95.7624 404.405 96.057 403.403 96.745" fill="#68C130"/>
<path d="M132.255 294.162C129.187 295.912 126.116 297.661 123.047 299.411C121.253 300.432 119.425 301.481 118.053 303.024C116.657 304.59 115.115 307.545 117.556 309.071C120.025 310.613 124.287 308.223 126.34 306.876C128.391 305.531 130.399 304.032 131.713 301.961C134.257 297.957 131.835 294.402 132.255 294.162" fill="#366F2E"/>
<path d="M305.572 242.641C298.375 240.524 291.86 236.156 287.165 230.305C285.945 228.782 284.803 227.044 284.737 225.093C287.383 223.901 289.915 222.106 291.931 220.02C296.557 225.249 304.023 228.782 310.913 227.648C310.24 233.037 308.799 238.273 305.572 242.641" fill="#68C130"/>
<path d="M279.129 248.206C277.052 246.324 276.271 242.996 275.331 240.354C273.897 241.826 271.94 242.777 269.897 242.994C270.825 246.952 273.159 250.774 276.8 252.581C276.829 251.089 277.967 249.141 279.129 248.206" fill="#68C130"/>
<path d="M424.565 31.7386C422.488 29.8559 421.705 26.5279 420.767 23.8866C419.333 25.3586 417.376 26.3093 415.333 26.5266C416.261 30.484 418.595 34.3066 422.236 36.1133C422.265 34.6213 423.403 32.6746 424.565 31.7386" fill="#68C130"/>
<path d="M118.225 93.2892C120.104 91.2079 120.548 87.8186 121.217 85.0959C122.792 86.4159 124.833 87.1665 126.888 87.1785C126.361 91.2092 124.423 95.2465 120.981 97.4092C120.803 95.9278 119.476 94.1039 118.225 93.2892" fill="#68C130"/>
<path d="M441.276 335.371C443.153 333.289 443.598 329.9 444.268 327.177C445.842 328.499 447.884 329.248 449.939 329.26C449.412 333.291 447.473 337.327 444.032 339.489C443.853 338.008 442.527 336.185 441.276 335.371" fill="#68C130"/>
<path d="M205.416 352.874L200.249 343.217C200.249 343.217 193.859 360.99 175.757 362.786L181.063 369.693C181.063 369.693 196.323 368.257 205.416 352.874" fill="#68C130"/>
<path d="M265.196 163.493L260.339 158.467C260.339 158.467 259.519 170.493 248.721 174.755L253.183 178.068C253.183 178.068 262.3 174.524 265.196 163.493Z" fill="#68C130"/>
<path d="M223.974 401.261L227.488 393.558C227.488 393.558 213.572 397.969 203.993 387.682L202.229 394.184C202.229 394.184 210.264 402.886 223.974 401.261" fill="#43B03B"/>
<path d="M355.329 52.2626L358.843 44.5599C358.843 44.5599 344.925 48.9692 335.347 38.6826L333.584 45.1839C333.584 45.1839 341.619 53.8879 355.329 52.2626" fill="#43B03B"/>
<path d="M158.52 78.5625L165.359 73.5718C165.359 73.5718 151.067 70.5918 147.76 56.9305L143.036 61.7318C143.036 61.7318 145.772 73.2572 158.52 78.5625" fill="#43B03B"/>
<path d="M428.893 310.545L422.055 305.554C422.055 305.554 436.347 302.575 439.652 288.913L444.376 293.715C444.376 293.715 441.64 305.24 428.893 310.545" fill="#43B03B"/>
<path d="M232.223 312.205C229.465 307.661 227.005 307.329 221.841 306.976L204.548 305.796C195.687 305.192 186.597 304.199 177.648 304.432C177.317 300.413 176.376 296.389 172.957 293.821C168.891 290.767 162.839 291.012 159.652 295.248C157.005 298.765 157.34 303.64 159.4 307.36C159.489 307.521 159.669 307.836 159.899 308.221C157.424 310.743 156.172 314.281 157.411 318.271C158.709 322.457 162.717 324.876 166.969 322.941C170.053 321.537 172.861 319.548 174.523 316.831C184.052 318.64 193.988 318.857 203.612 319.515L219.575 320.604C225.083 320.98 228.203 321.48 231.901 316.925C232.868 315.733 233.02 313.517 232.223 312.205" fill="white"/>
<path d="M330.148 285.156C354.024 281.749 381.805 278.185 399.133 294.96C412.26 307.669 414.339 328.492 409.633 346.148C407.104 355.64 402.788 364.804 396.077 371.976C362.849 407.488 306.469 376.714 274.857 355.885C256.26 343.632 236.935 331.361 215.092 327.018C211.043 326.214 206.308 325.242 204.529 321.51C202.455 317.136 207.387 315.234 210.337 315.829C186.701 290.264 229.051 291.82 242.725 291.718C271.965 291.505 301.203 289.284 330.148 285.156" fill="#F68815"/>
<path d="M350.906 370.554C338.372 370.553 326.132 365.796 315.543 359.028C304.465 351.944 294.947 342.721 285.509 333.564C283.248 331.37 280.907 329.052 279.943 326.053C278.339 321.065 281.132 315.497 285.302 312.325C289.473 309.154 294.745 307.872 299.869 306.786C316.58 303.246 338.572 296.564 357.69 296.564C362.676 296.564 367.469 297.018 371.918 298.102C390.656 302.664 402.28 324.3 393.404 342.052C390.945 346.969 387.201 351.117 383.305 354.994C377.588 360.686 371.231 366.068 363.587 368.645C360.069 369.832 356.357 370.392 352.646 370.522C352.066 370.544 351.486 370.554 350.906 370.554" fill="#F79425"/>
<path d="M351.805 338.992C359.375 337.337 367.783 340.043 367.764 349.709C367.755 353.844 364.407 357.412 360.524 358.828C355.637 360.612 350.079 359.576 345.436 357.228C342.319 355.651 339.165 352.792 339.621 349.329C339.843 347.649 340.887 346.212 341.899 344.855C344.067 341.944 347.819 339.864 351.805 338.992" fill="#F68512"/>
<path d="M379.104 327.166C379.171 325.782 378.723 324.15 377.744 323.121C377.388 322.805 377.032 322.49 376.677 322.174C375.963 321.692 375.18 321.401 374.339 321.28C372.492 320.864 370.595 321.149 368.989 321.988C367.285 322.39 365.903 323.661 365.133 325.188C364.357 326.724 364.249 328.292 364.808 329.92C365.45 331.785 366.733 332.996 368.546 333.748C370.292 334.472 372.276 334.384 374.027 333.781C375.071 333.422 375.764 333.126 376.665 332.365C377.717 331.478 378.736 329.956 378.905 328.497C379.011 328.05 379.084 327.594 379.104 327.166" fill="#F68512"/>
<path d="M381.689 339.395L381.913 339.743C381.717 339.379 381.43 339.109 381.113 338.893L381.128 338.888C380.741 338.56 380.328 338.379 379.89 338.252L379.861 338.239L379.884 338.244L379.832 338.224C377.931 337.464 375.724 338.165 374.748 340.097C373.713 342.148 374.651 344.947 376.967 345.66C377.9 345.948 378.56 345.947 379.507 345.848C382.393 345.549 383.687 341.381 381.689 339.395" fill="#F68512"/>
<path d="M168.447 297.161C168.605 296.232 168.017 295.383 167.044 295.275C166.744 295.241 166.444 295.103 166.136 295.084C165.643 295.052 165.127 295.185 164.665 295.337C163.732 295.648 163.023 296.287 162.443 297.072C162.241 297.345 162.127 297.657 162.076 297.98C161.56 299.208 161.639 300.677 162.852 301.513C164.195 302.44 165.876 301.988 166.965 300.907C167.475 300.4 168.041 299.772 168.3 299.081C168.539 298.44 168.517 297.809 168.447 297.161Z" fill="#F8F8F8"/>
<path d="M174.464 299.74C174.397 299.201 174.144 298.656 173.745 298.286C172.284 296.937 170.243 298.653 171.348 300.286C171.513 301.086 172.063 301.716 172.991 301.653C174.004 301.586 174.584 300.703 174.464 299.74Z" fill="#F8F8F8"/>
<path d="M220.475 263.729C163.899 290.419 145.151 224.163 145.151 224.163C147.22 223.823 149.275 223.46 151.325 223.061C177.845 217.975 203.416 207.987 226.347 193.743C228.56 192.373 230.736 190.971 232.895 189.521C232.895 189.521 270.052 240.341 220.475 263.729" fill="#DC2C23"/>
<path d="M239.443 234.132C238.251 241.585 233.921 248.351 228.129 253.201C222.334 258.052 215.181 261.087 207.8 262.687C200.455 264.284 192.705 264.508 185.464 262.485C176.321 259.917 168.42 253.853 162.4 246.496C156.852 239.729 154.235 231.329 151.325 223.061C154.237 222.507 157.131 221.883 160.02 221.208C181.811 216.111 202.82 207.684 222.097 196.309C223.52 195.477 224.94 194.621 226.346 193.743C229.892 198.699 232.671 204.201 235.023 209.825C238.248 217.521 240.765 225.892 239.443 234.132" fill="#EE2F21"/>
<path d="M213.828 252.437C178.377 269.005 163.379 233.642 160.02 221.208C181.811 216.11 202.82 207.684 222.097 196.309C231.653 208.053 241.472 239.514 213.828 252.437" fill="#EF3220"/>
<path d="M206.217 223.525C212.18 218.612 215.997 211.59 221.383 206.053C222.556 204.845 224.25 203.624 225.78 204.332C226.466 204.649 226.934 205.298 227.329 205.944C232.577 214.537 229.516 226.412 222.351 233.484C215.184 240.556 204.908 243.574 194.891 244.593C191.835 244.905 188.737 245.054 185.699 244.593C180.888 243.865 176.428 241.641 172.291 239.078C170.079 237.708 167.813 236.092 166.84 233.678C163.096 224.393 178.74 230.644 182.595 230.778C191.012 231.074 199.624 228.957 206.217 223.525" fill="#C12E28"/>
<path d="M182.984 234.635C182.852 233.859 182.576 233.417 182.035 232.859C181.477 232.279 180.479 232.205 179.764 232.453C178.792 232.791 178.171 233.656 177.791 234.575C177.489 235.303 177.176 236.083 177.031 236.852C176.749 238.349 177.796 240.036 179.355 240.259C181.035 240.5 182.315 239.511 182.761 237.936C182.932 237.333 182.964 236.667 183.016 236.043C183.057 235.548 183.067 235.116 182.984 234.635" fill="#E9B456"/>
<path d="M191.131 234.345C190.691 233.494 189.909 232.761 188.861 232.894C187.8 233.03 187.176 233.718 186.86 234.696C186.621 235.432 186.675 236.189 186.737 236.948C186.843 238.224 188.065 239.356 189.377 239.188C190.695 239.02 191.731 237.916 191.617 236.548C191.555 235.788 191.484 235.032 191.131 234.345Z" fill="#E9B456"/>
<path d="M200.692 233.045C200.227 231.28 197.244 231.525 197.073 233.343C196.959 234.567 196.969 235.969 197.461 237.112C198.175 238.767 200.489 238.58 200.923 236.828C201.224 235.617 201.005 234.236 200.692 233.045Z" fill="#E9B456"/>
<path d="M208.695 228.719C207.335 228.537 206.216 229.76 206.673 231.103C206.873 231.695 207.233 232.201 207.573 232.72L207.661 232.86L207.751 233.041C207.911 233.415 208.084 233.777 208.297 234.124C209.396 235.92 212.495 234.8 212.199 232.716C211.955 231.001 210.519 228.961 208.695 228.719" fill="#E9B456"/>
<path d="M219.912 225.047C219.38 224.731 218.745 224.581 218.195 224.28C217.767 224.044 217.224 223.616 216.568 223.395C215.856 223.155 215.144 223.152 214.559 223.703C214.068 224.164 213.747 225.011 214.064 225.669C214.561 226.7 215.259 227.3 216.223 227.885C216.917 228.307 217.837 228.811 218.656 228.871C219.664 228.944 220.625 228.54 220.945 227.504C221.261 226.484 220.804 225.579 219.912 225.047Z" fill="#E9B456"/>
<path d="M224.267 216.621C222.965 216.213 221.705 215.821 220.348 216.224C219.301 216.535 218.767 218.084 219.493 218.944C220.519 220.156 221.975 220.515 223.449 220.937C224.556 221.253 225.86 220.287 226.016 219.187C226.2 217.895 225.444 216.989 224.267 216.621Z" fill="#E9B456"/>
<path d="M242.048 221.597C241.793 219.864 238.875 219.431 238.744 221.424C238.404 226.549 238.623 231.649 237.412 236.688C236.052 242.345 233.232 246.559 229.751 251.104C228.935 252.171 230.176 253.537 231.321 252.827C241.067 246.776 243.596 232.093 242.048 221.597" fill="white"/>
<path d="M240.903 213.83C240.475 212.42 239.992 210.986 239.253 209.705C238.516 208.424 236.557 206.948 235.272 208.526C234.341 209.668 234.731 210.998 235.195 212.25C235.596 213.332 235.995 214.4 236.303 215.513C236.656 216.789 238.275 217.398 239.444 216.972C240.748 216.496 241.287 215.1 240.903 213.83" fill="white"/>
<path d="M215.856 155.033C258.248 165.796 262.268 117.821 262.268 117.821C260.804 117.865 259.345 117.891 257.883 117.891C239.005 117.94 220.121 114.5 202.481 107.785C200.78 107.141 199.1 106.469 197.424 105.763C197.424 105.763 178.708 145.603 215.856 155.033Z" fill="#F6A70E"/>
<path d="M198.887 137.253C200.7 142.209 204.575 146.275 209.197 148.829C213.821 151.385 219.137 152.513 224.416 152.625C229.671 152.741 235.019 151.86 239.719 149.505C245.649 146.521 250.263 141.305 253.413 135.452C256.316 130.068 256.991 123.953 257.883 117.891C255.811 117.899 253.743 117.856 251.669 117.779C236.032 117.191 220.489 114.212 205.741 108.98C204.653 108.599 203.565 108.201 202.481 107.785C200.711 111.66 199.539 115.808 198.676 119.981C197.489 125.693 196.879 131.776 198.887 137.253" fill="#F6B221"/>
<path d="M218.911 146.396C245.452 153.033 251.024 126.763 251.669 117.779C236.032 117.191 220.489 114.212 205.741 108.98C200.751 118.316 198.212 141.219 218.911 146.396" fill="#F6BF41"/>
<path d="M220.273 125.537C215.525 122.963 211.969 118.653 207.532 115.571C206.565 114.899 205.24 114.288 204.285 114.976C203.856 115.287 203.621 115.795 203.437 116.291C200.983 122.888 204.669 130.629 210.531 134.527C216.393 138.423 223.849 139.123 230.86 138.485C232.999 138.291 235.144 137.979 237.168 137.257C240.372 136.115 243.137 133.993 245.635 131.683C246.969 130.447 248.307 129.036 248.653 127.248C249.983 120.376 240.083 126.755 237.453 127.361C231.716 128.688 225.525 128.385 220.273 125.537" fill="#F79D0F"/>
<path d="M237.701 130.06C237.689 129.509 237.82 129.171 238.115 128.715C238.42 128.243 239.096 128.057 239.62 128.133C240.332 128.235 240.873 128.747 241.257 129.325C241.561 129.784 241.88 130.279 242.084 130.787C242.476 131.776 241.984 133.075 240.944 133.436C239.821 133.825 238.811 133.317 238.296 132.296C238.097 131.905 237.987 131.452 237.867 131.031C237.773 130.697 237.709 130.401 237.701 130.06" fill="white"/>
<path d="M232.073 130.949C232.26 130.307 232.699 129.699 233.436 129.651C234.183 129.603 234.701 129.991 235.051 130.62C235.312 131.093 235.376 131.62 235.435 132.149C235.532 133.039 234.845 133.979 233.921 134.039C232.995 134.1 232.137 133.479 232.031 132.525C231.972 131.996 231.92 131.468 232.073 130.949" fill="white"/>
<path d="M225.337 131.333C225.42 130.06 227.5 129.829 227.86 131.054C228.101 131.878 228.283 132.842 228.096 133.693C227.828 134.924 226.215 135.105 225.683 133.96C225.315 133.169 225.281 132.192 225.337 131.333Z" fill="white"/>
<path d="M219.265 129.433C220.176 129.127 221.107 129.816 220.972 130.8C220.913 131.231 220.735 131.628 220.571 132.028L220.528 132.136L220.49 132.273C220.432 132.551 220.361 132.822 220.261 133.089C219.748 134.469 217.471 134.113 217.396 132.643C217.333 131.435 218.047 129.843 219.265 129.433Z" fill="white"/>
<path d="M211.079 128.409C211.401 128.122 211.816 127.934 212.153 127.654C212.416 127.436 212.732 127.069 213.152 126.83C213.609 126.57 214.096 126.473 214.573 126.773C214.972 127.024 215.305 127.561 215.175 128.057C214.972 128.83 214.572 129.336 213.988 129.865C213.568 130.248 213.005 130.716 212.451 130.866C211.768 131.052 211.055 130.902 210.696 130.234C210.344 129.577 210.537 128.894 211.079 128.409" fill="white"/>
<path d="M206.964 123.209C207.804 122.755 208.616 122.319 209.6 122.413C210.361 122.487 210.933 123.478 210.551 124.165C210.009 125.133 209.057 125.576 208.101 126.061C207.384 126.426 206.361 125.937 206.107 125.204C205.807 124.341 206.205 123.619 206.964 123.209" fill="white"/>
<path d="M195.424 128.998C195.368 127.774 197.313 127.088 197.671 128.438C198.587 131.909 199.119 135.44 200.623 138.736C202.309 142.437 204.808 144.952 207.804 147.606C208.507 148.23 207.837 149.333 206.957 148.998C199.46 146.148 195.764 136.409 195.424 128.998" fill="white"/>
<path d="M195.175 123.515C195.279 122.491 195.419 121.441 195.755 120.464C196.091 119.487 197.239 118.212 198.331 119.123C199.121 119.783 199.032 120.748 198.88 121.669C198.751 122.464 198.619 123.249 198.556 124.057C198.484 124.979 197.455 125.613 196.595 125.476C195.637 125.324 195.081 124.437 195.175 123.515" fill="white"/>
<path d="M424.641 231.824C418.855 245.784 404.108 258.491 389.788 253.664C382.228 251.131 376.988 244.464 371.349 238.824C364.281 231.769 356.001 225.944 346.963 221.691C334.268 215.717 320.175 212.837 308.055 205.784C295.923 198.731 285.629 185.451 288.243 171.664C288.948 167.957 290.161 164.504 291.803 161.304C295.643 153.771 301.868 147.677 309.455 142.984C333.855 127.891 372.441 127.371 391.963 140.891C406.281 150.797 418.121 164.611 424.441 180.837C427.441 188.531 429.136 196.769 429.375 205.011C429.655 214.171 428.148 223.357 424.641 231.824Z" fill="#F8F8F8"/>
<path d="M429.375 205.01C429.121 212.57 427.601 220.064 424.696 227.064C418.988 240.864 404.428 253.397 390.281 248.637C382.815 246.13 377.641 239.544 372.068 233.984C365.108 227.024 356.921 221.264 348.001 217.064C335.469 211.17 321.548 208.33 309.576 201.357C297.601 194.384 287.428 181.277 290.016 167.664C290.428 165.45 291.028 163.33 291.803 161.304C295.643 153.77 301.868 147.677 309.455 142.984C333.855 127.89 372.441 127.37 391.963 140.89C406.281 150.797 418.121 164.61 424.441 180.837C427.441 188.53 429.136 196.769 429.375 205.01" fill="white"/>
<path d="M388.016 177.731C387.388 179.997 386.375 182.224 384.761 183.931C380.095 188.877 372.175 188.291 365.495 187.024C354.375 184.917 328.428 178.624 323.643 166.864C322.948 165.157 322.868 163.464 323.255 161.811C323.643 160.171 324.201 158.664 324.909 157.264C334.081 139.211 368.441 141.011 380.803 153.117C384.215 156.464 386.708 160.784 387.948 165.397C389.016 169.437 389.121 173.691 388.016 177.731" fill="#F68A24"/>
<path d="M387.948 165.397C386.415 169.904 382.761 173.864 378.388 175.997C371.694 179.277 363.841 179.09 356.481 177.957C351.748 177.224 347.054 176.144 342.469 174.704C337.601 173.17 332.682 171.13 329.161 167.437C326.881 165.037 325.388 161.25 324.909 157.264C334.081 139.21 368.441 141.01 380.802 153.117C384.214 156.464 386.708 160.784 387.948 165.397" fill="#F79332"/>
<path d="M344.929 166.56C342.704 166.56 340.466 166.308 338.28 165.9C335.101 165.305 331.364 163.674 331.134 160.45C330.97 158.158 331.986 156.178 333.64 154.512C337.408 150.712 344.484 148.537 348.415 147.992C349.007 147.91 349.682 147.868 350.413 147.868C356.302 147.868 365.67 150.633 361.989 157.724C359.922 161.704 355.923 164.461 351.609 165.684C349.436 166.301 347.188 166.56 344.929 166.56" fill="#F89E43"/>
<path d="M396.811 229.948C396.675 228.931 396.277 228.079 395.583 227.305C394.713 226.343 393.784 226.083 392.543 225.924C391.445 225.784 390.311 226.545 389.683 227.36C389.124 228.083 388.901 228.863 388.931 229.708C388.86 229.937 388.805 230.169 388.769 230.431C388.689 231.029 388.781 231.511 388.864 232.113C388.981 232.957 389.9 234.02 390.627 234.404C391.579 234.907 392.521 234.996 393.58 234.791C395.753 234.367 397.092 232.033 396.811 229.948" fill="#F8F8F8"/>
<path d="M404.74 216.024L404.432 215.738C403.297 214.682 401.351 214.529 400.241 215.738C399.123 216.957 399.112 218.716 400.241 219.929L400.527 220.237C401.589 221.381 403.679 221.393 404.74 220.237C405.799 219.084 405.959 217.157 404.74 216.024Z" fill="#F8F8F8"/>
<path d="M409.3 224.755C405.813 224.755 405.808 230.172 409.3 230.172C412.785 230.172 412.791 224.755 409.3 224.755Z" fill="#F8F8F8"/>
<path d="M347.382 208.353C347.296 207.428 347.06 206.615 346.381 205.937C345.789 205.344 344.817 204.897 343.966 204.936C341.972 205.025 340.729 206.441 340.549 208.353C340.534 208.5 340.522 208.649 340.508 208.797C340.338 210.604 342.218 212.333 343.966 212.254C345.694 212.177 347.605 210.725 347.424 208.797C347.41 208.649 347.397 208.5 347.382 208.353" fill="#F8F8F8"/>
<path d="M331.065 202.411C330.983 201.889 330.728 201.445 330.333 201.097C329.449 200.313 328.267 200.309 327.377 201.097C326.983 201.445 326.727 201.889 326.645 202.411C326.417 203.857 327.253 205.311 328.856 205.311C329.443 205.311 330.06 205.056 330.475 204.64C331.103 204.012 331.195 203.244 331.065 202.411Z" fill="#F8F8F8"/>
<path d="M306.139 157.138C306.099 156.841 305.995 156.532 305.848 156.237C305.881 155.66 305.723 155.076 305.312 154.544C304.489 153.48 303.076 153.236 301.895 153.861C300.409 154.649 299.468 156.332 299.963 158.012C300.277 159.081 301.097 159.901 302.151 160.249C303.067 160.549 303.967 160.316 304.804 159.928C305.801 159.464 306.275 158.144 306.139 157.138" fill="#F8F8F8"/>
<path d="M406.087 158.676C405.285 157.873 404.245 157.699 403.168 157.904C403.028 157.931 402.887 157.957 402.747 157.984C401.548 158.213 400.551 159.6 400.605 160.797C400.659 162.009 401.461 163.365 402.747 163.609C402.887 163.637 403.028 163.664 403.168 163.691C405.061 164.051 406.967 162.849 406.967 160.797C406.967 160.028 406.632 159.22 406.087 158.676" fill="#F8F8F8"/>
<path d="M410.633 165.644C408.863 165.644 408.861 168.395 410.633 168.395C412.403 168.395 412.405 165.644 410.633 165.644Z" fill="#F8F8F8"/>
<path d="M431.219 409.148C427.284 416.701 419.665 421.972 411.416 424.086C403.491 426.112 395.816 424.773 388.023 422.41C387.703 422.316 387.373 422.221 387.056 422.117C387.161 421.78 387.279 421.444 387.393 421.117C390.869 410.982 397.1 401.805 405.244 394.837C413.083 388.138 422.483 383.562 431.764 379.065C435.176 388.889 435.692 400.566 431.219 409.148" fill="#92B824"/>
<path d="M431.219 409.148C427.284 416.701 419.665 421.972 411.416 424.086C403.491 426.112 395.816 424.773 388.023 422.41C387.703 422.316 387.373 422.221 387.056 422.117C426.263 412.346 431.764 379.065 431.764 379.065C435.176 388.889 435.692 400.566 431.219 409.148" fill="#85A927"/>
<path d="M425.789 395.034C422.097 402.525 415.164 409.046 408.343 413.665C402.356 417.716 395.271 421.084 388.023 422.41C387.703 422.316 387.373 422.221 387.056 422.117C387.161 421.78 387.279 421.444 387.393 421.117C394.677 419.256 401.472 416.69 407.795 412.344C411.331 409.906 414.607 407.097 417.521 403.934C420.261 400.962 422.371 397.666 424.687 394.38C425.113 393.785 426.105 394.385 425.789 395.034" fill="#366F2E"/>
<path d="M190.416 51.6145C192.244 59.9332 198.223 67.0079 205.635 71.2039C212.755 75.2265 220.513 75.9372 228.653 75.6906C228.987 75.6826 229.329 75.6759 229.664 75.6599C229.648 75.3053 229.625 74.9506 229.599 74.6052C228.887 63.9146 225.267 53.4305 219.225 44.5785C213.407 36.0665 205.527 29.1946 197.74 22.4319C191.883 31.0253 188.337 42.1612 190.416 51.6145Z" fill="#92B824"/>
<path d="M190.416 51.6145C192.244 59.9332 198.223 67.0079 205.635 71.2039C212.755 75.2265 220.513 75.9372 228.653 75.6906C228.987 75.6826 229.329 75.6759 229.664 75.6599C194.364 55.9946 197.74 22.4319 197.74 22.4319C191.883 31.0253 188.337 42.1612 190.416 51.6145" fill="#85A927"/>
<path d="M199.34 39.4077C200.949 47.6011 205.94 55.7064 211.32 61.9451C216.041 67.4171 222.003 72.5171 228.653 75.6904C228.987 75.6824 229.329 75.6758 229.664 75.6598C229.648 75.3051 229.625 74.9504 229.599 74.6051C223.053 70.9091 217.163 66.6584 212.195 60.8117C209.416 57.5357 206.987 53.9691 204.999 50.1557C203.129 46.5717 201.952 42.8398 200.576 39.0624C200.319 38.3771 199.204 38.6971 199.34 39.4077" fill="#366F2E"/>
<path d="M350.972 256.08C349.981 260.589 346.741 264.424 342.722 266.699C338.862 268.879 334.657 269.264 330.245 269.131C330.064 269.127 329.878 269.123 329.696 269.113C329.704 268.921 329.719 268.729 329.732 268.543C330.119 262.748 332.081 257.064 335.356 252.265C338.51 247.652 342.781 243.927 347.002 240.261C350.177 244.919 352.099 250.956 350.972 256.08" fill="#92B824"/>
<path d="M350.972 256.08C349.981 260.589 346.741 264.424 342.722 266.699C338.862 268.879 334.657 269.264 330.245 269.131C330.064 269.127 329.878 269.123 329.696 269.113C348.832 258.455 347.002 240.261 347.002 240.261C350.177 244.919 352.099 250.956 350.972 256.08" fill="#85A927"/>
<path d="M346.134 249.462C345.261 253.904 342.557 258.297 339.64 261.68C337.081 264.646 333.85 267.41 330.245 269.13C330.064 269.126 329.878 269.122 329.696 269.113C329.704 268.921 329.719 268.729 329.732 268.542C333.28 266.538 336.473 264.234 339.167 261.065C340.673 259.289 341.989 257.357 343.068 255.289C344.081 253.346 344.719 251.324 345.465 249.276C345.604 248.904 346.208 249.077 346.134 249.462" fill="#366F2E"/>
<path d="M119.604 235.645C115.477 230.7 112.327 224.728 109.225 218.832C103.939 208.781 98.6533 198.732 93.3666 188.682C80.96 165.092 68.46 141.29 59.896 115.845C57.32 108.192 53.2693 101.828 51.9946 93.9423C81.6773 136.193 103.987 185.089 119.604 235.645" fill="#61B832"/>
<path d="M124.112 244.812C115.297 230.19 105.852 215.948 95.8092 202.138C91.2026 195.804 86.4239 189.509 80.5279 184.353C74.2719 178.886 66.9226 174.841 60.2186 169.936C48.364 161.264 38.676 150.024 29.0986 138.888C41.8133 139.061 53.4266 144.025 63.4533 151.845C73.4786 159.665 81.5706 169.665 89.1626 179.865C93.36 185.504 97.4479 191.258 100.703 197.489C102.567 201.057 123.56 235.749 124.112 244.812" fill="#68C130"/>
<path d="M106.861 217.869C106.861 217.869 111.64 218.713 113.349 216.534C113.349 216.534 132.269 250.428 129.997 258.758C127.724 267.089 122.729 262.813 122.833 257.732C122.939 252.65 112.897 226.592 106.861 217.869" fill="white"/>
<path d="M273.085 82.6506C275.491 84.7146 278.083 86.5826 280.673 88.4519C286.776 92.8573 292.88 97.2639 298.984 101.669C303.347 104.828 307.925 108.068 313.808 108.787C320.408 109.584 327.412 108.159 333.744 109.741L333.765 109.749C334.964 105.979 330.333 104.003 327.115 102.739C323.241 101.216 318.949 100.308 315.485 98.2066C310.113 94.9199 307.308 89.1359 304.057 83.9066C301.347 79.5492 298.216 75.4786 294.703 71.7426C292.124 68.9959 289.805 65.7586 286.259 63.9839C282.2 61.9599 278.38 63.8212 274.131 67.2399C271.252 69.5572 268.947 72.8933 269.02 75.9973C269.083 78.8466 271.053 80.9159 273.085 82.6506" fill="#EF3220"/>
<path d="M273.085 82.6505C275.491 84.7145 278.083 86.5826 280.673 88.4519C286.776 92.8572 292.88 97.2639 298.984 101.669C303.347 104.828 307.925 108.068 313.808 108.787C320.408 109.584 327.412 108.159 333.744 109.741C333.403 109.517 327.793 105.927 320.417 105.891C312.803 105.852 310.661 107.072 299.601 97.8479C288.529 88.6305 267.201 78.0492 274.131 67.2398C271.252 69.5572 268.947 72.8932 269.02 75.9972C269.083 78.8465 271.053 80.9159 273.085 82.6505" fill="#EE2F21"/>
<path d="M273.809 63.8519C272.861 63.6066 271.655 63.4732 270.779 64.2292C270.267 64.6706 270.017 65.3199 270.007 65.8932C269.996 66.4666 270.194 66.9812 270.42 67.4639C270.884 68.4439 271.487 69.3439 272.213 70.1385C272.335 70.2732 272.472 70.4092 272.672 70.4305C272.895 70.4545 273.14 70.3332 273.363 70.2079C274.623 69.5025 277.723 67.3812 277.719 65.8732C277.715 64.4905 274.939 64.1426 273.809 63.8519" fill="#68C130"/>
<path d="M262.329 58.7626C267.041 59.6252 270.911 63.2372 273.792 66.3879C274.273 66.9146 273.151 67.7786 272.671 67.2546C271.095 65.5386 269.355 63.9852 267.383 62.6626C265.628 61.4852 263.531 60.7198 261.824 59.5092C261.469 59.2572 261.885 58.6812 262.329 58.7626Z" fill="#68C130"/>
<path d="M308.485 103.376C306.615 101.729 304.195 100.713 302.113 99.3399C299.596 97.6812 297.389 95.6932 295.068 93.7866C294.143 93.0266 292.931 94.1946 293.743 95.1119C295.628 97.2426 297.948 99.0266 300.289 100.633C302.533 102.172 305.149 103.987 307.888 104.403C308.431 104.485 308.999 103.827 308.485 103.376" fill="white"/>
<path d="M314.14 105.128C313.329 105.064 312.532 105.014 311.721 105.05C311.131 105.076 310.959 105.804 311.429 106.128C312.273 106.706 313.355 106.988 314.387 106.853C314.784 106.801 315.069 106.622 315.201 106.232C315.44 105.536 314.713 105.173 314.14 105.128" fill="white"/>
<path d="M178.455 174.333C175.855 179.373 171.401 183.707 164.615 186.853C117.081 208.933 106.001 130.587 122.508 109.627C123.401 108.493 124.375 107.533 125.427 106.76C145.708 91.8532 193.495 145.067 178.455 174.333Z" fill="#F8F8F8"/>
<path d="M178.455 174.333C175.788 177.84 172.001 180.88 166.895 183.253C121.76 204.213 109.495 134.64 122.508 109.627C123.401 108.493 124.375 107.533 125.427 106.76C145.708 91.8532 193.495 145.067 178.455 174.333" fill="white"/>
<path d="M170.08 163.64C168.521 173.427 156.268 180.053 147.015 177.747C141.161 176.293 136.001 171.987 133.641 166.52C132.935 164.867 132.48 163.107 132.348 161.293C131.533 150.707 141.628 144.427 151.215 144.44C156.655 144.453 162.508 147.267 166.268 151.587C169.161 154.907 170.8 159.107 170.08 163.64" fill="#F68A24"/>
<path d="M167.133 158.92C165.573 168.706 153.321 175.333 144.055 173.026C140.027 172.026 136.335 169.666 133.641 166.52C132.935 164.866 132.48 163.106 132.348 161.293C131.533 150.706 141.628 144.426 151.215 144.44C156.655 144.453 162.508 147.266 166.268 151.586C167.188 153.853 167.548 156.333 167.133 158.92" fill="#F79332"/>
<path d="M140.67 165.573C139.886 165.573 139.115 165.391 138.405 164.977C133.109 161.877 136.426 153.092 140.017 150.04C140.933 149.261 142.139 148.855 143.316 148.855C145.16 148.855 146.932 149.856 147.391 151.987C148.047 155.039 148.368 158.749 146.893 161.627C145.832 163.695 143.19 165.573 140.67 165.573" fill="#F89E43"/>
<path d="M107.948 320.328C112.456 342.722 125.92 362.118 139.068 380.798C144.275 388.196 149.78 397.336 157.255 402.638C159.528 399.921 149.511 386.153 147.68 383.001C143.565 375.914 139.359 368.878 135.063 361.9C126.388 347.809 117.345 333.945 107.948 320.328" fill="#61B832"/>
<path d="M138.255 367.721C134.563 354.275 132.517 340.271 126.831 327.537C143.125 349.852 155.117 374.493 161.385 402.583C156.955 400.361 153.72 398.912 150.667 394.943C144.54 386.979 140.892 377.328 138.255 367.721" fill="#68C130"/>
<path d="M113.675 362.014C118.893 371.12 125.088 379.753 132.823 386.848C137.872 391.477 154.084 405.194 161.385 402.582C156.045 394.886 144.915 386.625 137.764 380.589C130.015 374.046 121.973 367.846 113.675 362.014Z" fill="#68C130"/>
<path d="M188.522 410.519C188.904 427.016 165.608 436.411 152.505 432.057C146.83 430.18 143.068 425.715 143.965 418.141C144.858 410.628 148.317 403.295 154.125 398.448C159.937 393.592 168.166 391.507 175.39 393.777L175.48 393.805C182.658 396.107 188.352 402.983 188.522 410.519" fill="#EB566B"/>
<path d="M188.523 410.519C188.904 427.016 165.608 436.411 152.505 432.057C152.932 431.825 153.441 431.599 154.043 431.389C160.291 429.192 166.428 428.584 172.093 424.723C178.737 420.196 183.484 411.855 181.308 404.12C180.24 400.289 177.688 397.14 175.48 393.805C182.659 396.107 188.352 402.983 188.523 410.519" fill="#EB4558"/>
<path d="M148.84 421.305C149.173 421.88 149.576 422.433 150.123 422.809C150.937 423.37 151.993 423.477 152.973 423.346C155.646 422.989 157.945 420.93 158.861 418.396C159.78 415.861 159.397 412.95 158.108 410.584C156.357 407.364 151.979 405.698 149.52 409.06C147.137 412.312 146.854 417.884 148.84 421.305" fill="#EB6F82"/>
<path d="M163.24 402.436C162.611 401.487 161.537 401.087 160.44 401.145C159.656 401.188 158.653 401.405 158.015 401.889C157.196 402.508 156.685 403.631 157.079 404.647L157.092 404.679C157.224 405.895 158.065 406.871 159.327 407.209C160.488 407.52 161.777 407.329 162.693 406.521C163.839 405.512 164.092 403.723 163.24 402.436" fill="#EB6F82"/>
<path d="M162.015 408.312L161.711 408.292L161.511 408.327C161.351 408.335 161.181 408.361 161.035 408.412L160.965 408.443L160.956 408.445L160.896 408.475L160.671 408.585C160.208 408.843 159.869 409.299 159.755 409.817C159.677 410.169 159.705 410.513 159.805 410.832L159.824 410.896L159.893 411.059C160.068 411.472 160.368 411.832 160.777 412.049C160.995 412.164 161.243 412.228 161.495 412.251L161.567 412.276C162.743 412.555 163.829 411.643 163.917 410.488C164.001 409.372 163.113 408.396 162.015 408.312" fill="#EB6F82"/>
<path d="M173.42 426.885C173.827 428.519 176.737 428.3 178.111 428.753C180.052 429.396 181.473 431.365 181.471 433.412C181.468 435.161 180.575 437.093 181.555 438.543C182.464 439.888 184.417 439.915 186.019 439.648C184.513 439.596 183.113 438.444 182.773 436.977C182.423 435.471 183.104 433.94 183.385 432.417C183.805 430.143 183.251 427.647 181.683 425.945C180.112 424.243 173.903 422.396 173.393 426.175C173.357 426.444 173.368 426.68 173.42 426.885" fill="#EB4558"/>
<path d="M184.011 413.289C183.48 414.136 183.439 415.16 183.132 416.108C182.691 417.47 182.051 418.766 181.265 419.962C179.807 422.185 177.879 423.72 175.729 425.226C175.26 425.556 175.629 426.425 176.195 426.17C178.709 425.033 180.808 422.946 182.323 420.67C183.532 418.85 185.388 415.601 184.776 413.342C184.673 412.962 184.185 413.01 184.011 413.289" fill="white"/>
<path d="M184.273 405.825C184.177 405.639 183.941 405.568 183.749 405.565L183.602 405.563L183.341 405.735C182.97 406.384 183.592 407.061 183.802 407.693C184.113 408.632 184.224 409.607 184.202 410.593C184.189 411.328 185.289 411.243 185.329 410.532C185.422 408.861 185.036 407.307 184.273 405.825" fill="white"/>
<path d="M167.541 200.685C167.329 200.726 167.123 200.766 166.913 200.822C165.531 201.192 165.529 203.252 166.913 203.622C167.123 203.678 167.329 203.718 167.541 203.758C168.547 203.953 169.559 203.31 169.559 202.222C169.559 201.141 168.548 200.49 167.541 200.685Z" fill="#D3C5BA"/>
<path d="M470.32 42.4799C466.333 42.4799 466.333 48.6665 470.32 48.6665C474.307 48.6665 474.307 42.4799 470.32 42.4799Z" fill="#D3C5BA"/>
<path d="M58.0932 418.176C53.3946 417.214 49.1998 414.82 46.4012 410.854C42.9638 405.984 34.8666 410.642 38.3412 415.565C42.5186 421.482 48.4559 425.712 55.6119 427.176C61.4745 428.374 63.9826 419.381 58.0932 418.176" fill="#F2E0D8"/>
<path d="M257.521 199.697C254.921 199.697 252.432 201.982 252.552 204.666C252.673 207.358 254.736 209.636 257.521 209.636C260.12 209.636 262.609 207.35 262.489 204.666C262.369 201.974 260.305 199.697 257.521 199.697Z" fill="#D3C5BA"/>
<path d="M271.481 179.439L271.271 179.477C270.195 179.679 269.302 180.929 269.35 182C269.398 183.084 270.119 184.307 271.271 184.523L271.481 184.561C273.157 184.873 274.844 183.821 274.844 182C274.844 180.191 273.159 179.127 271.481 179.439Z" fill="#D3C5BA"/>
<path d="M127.965 196.164C122.456 196.164 122.447 204.725 127.965 204.725C133.475 204.725 133.484 196.164 127.965 196.164Z" fill="#D3C5BA"/>
<path d="M69.4626 248.444C69.4186 247.483 69.1026 246.485 68.372 245.815C67.8773 245.36 67.352 245.099 66.7693 244.931C64.3066 243.576 61.1853 245.735 61.1853 248.444C61.1853 251.14 64.2773 253.293 66.7346 251.977C67.3346 251.82 67.8813 251.565 68.372 251.075C69.0186 250.429 69.504 249.371 69.4626 248.444" fill="#D3C5BA"/>
<path d="M60.9987 297.248C59.6507 296.011 57.9933 295.229 56.128 295.229C54.3613 295.229 52.504 295.999 51.2547 297.248C50.06 298.443 49.16 300.404 49.2373 302.12C49.316 303.902 49.9027 305.75 51.2547 306.992C52.6027 308.229 54.26 309.01 56.128 309.01C57.8933 309.01 59.7507 308.241 60.9987 306.992C62.1947 305.797 63.0933 303.836 63.0173 302.12C62.9373 300.337 62.352 298.489 60.9987 297.248Z" fill="#D3C5BA"/>
<path d="M162.632 272.982C157.605 272.982 157.596 280.794 162.632 280.794C167.659 280.794 167.668 272.982 162.632 272.982Z" fill="#D3C5BA"/>
<path d="M74.5493 355.944C71.768 355.944 69.104 358.389 69.2333 361.26C69.3613 364.141 71.5693 366.579 74.5493 366.579C77.3306 366.579 79.9946 364.133 79.8666 361.26C79.7386 358.38 77.5293 355.944 74.5493 355.944Z" fill="#D3C5BA"/>
<path d="M427.948 275.573C427.143 274.833 425.989 274.176 424.855 274.292C424.357 274.342 423.66 274.361 423.259 274.492C422.464 274.749 421.864 275.156 421.229 275.708C419.605 277.12 419.609 280.217 421.229 281.625C421.827 282.144 422.463 282.66 423.259 282.841C423.775 282.958 424.327 282.988 424.855 283.041C425.903 283.148 427.232 282.476 427.948 281.76C428.707 281.001 429.279 279.756 429.229 278.666C429.179 277.534 428.807 276.361 427.948 275.573Z" fill="#D3C5BA"/>
<path d="M449.744 256.608C444.233 256.608 444.224 265.169 449.744 265.169C455.252 265.169 455.261 256.608 449.744 256.608Z" fill="#D3C5BA"/>
<path d="M454.602 115.088C454.7 113.383 453.997 111.633 452.373 110.805C450.526 109.861 448.497 109.883 446.828 111.172C445.508 112.192 444.888 113.677 444.831 115.316C444.781 116.711 445.41 118.099 446.346 119.099C447.166 119.975 448.565 120.565 449.764 120.532C450.725 120.505 451.508 120.252 452.364 119.837C453.369 119.349 454.221 118.092 454.509 117.048C454.672 116.454 454.7 115.76 454.602 115.088" fill="#D3C5BA"/>
<path d="M467.747 177.333C461.747 177.333 461.733 186.667 467.747 186.667C473.747 186.667 473.76 177.333 467.747 177.333Z" fill="#D3C5BA"/>
<path d="M49.1933 186C43.188 186 43.1773 195.333 49.1933 195.333C55.1973 195.333 55.208 186 49.1933 186Z" fill="#D3C5BA"/>
<path d="M67.8601 29.9999C61.8547 29.9999 61.8441 39.3333 67.8601 39.3333C73.8641 39.3333 73.8747 29.9999 67.8601 29.9999Z" fill="#D3C5BA"/>
<path d="M341.704 8.66642C335.698 8.66642 335.689 17.9998 341.704 17.9998C347.71 17.9998 347.72 8.66642 341.704 8.66642Z" fill="#D3C5BA"/>
<path d="M324.371 49.9999C318.365 49.9999 318.356 59.3333 324.371 59.3333C330.377 59.3333 330.387 49.9999 324.371 49.9999Z" fill="#D3C5BA"/>
<path d="M504.16 75.1918C504.76 71.8931 507.387 64.0184 510.507 62.7731C509.653 71.6851 506.973 84.6251 505.693 93.4851C507.84 86.0318 510.213 78.6505 512.853 71.3571C514.787 65.9878 516.973 60.4784 521.107 56.5438C519.467 69.6878 515.827 82.5797 510.373 94.6477C514.813 88.2811 519.707 82.2384 525.027 76.5851C525.987 76.8744 510.053 105.593 504.333 104.573C496.253 103.132 503.28 80.0024 504.16 75.1918" fill="#68C130"/>
<path d="M512.493 118.448C510.987 125.244 504.147 129.64 498.333 133.446C481.4 144.494 453.945 145.332 437.912 157.63C439.113 151.121 443.767 145.738 449.001 141.692C454.236 137.644 460.187 134.59 465.467 130.586C472.72 125.1 479.093 118.382 483.36 110.397C489.227 99.4304 502.173 96.5624 508.893 102.36C512.373 105.373 514.2 110.696 512.493 118.448Z" fill="#F68815"/>
<path d="M512.493 118.448C510.987 125.244 504.147 129.64 498.333 133.446C481.4 144.494 453.945 145.332 437.912 157.63C437.912 157.63 447.817 144.73 469.52 137.502C489.493 130.854 513.307 114.112 508.893 102.36C512.373 105.373 514.2 110.696 512.493 118.448" fill="#F57515"/>
<path d="M468.76 127.586C467.987 127.242 467.307 128.394 468.093 128.742C470.013 129.59 471.267 131.216 471.6 133.282C471.733 134.129 473.013 133.777 472.88 132.937C472.507 130.566 470.96 128.56 468.76 127.586Z" fill="#D7781A"/>
<path d="M472.253 122.802C471.48 122.464 470.8 123.616 471.587 123.958C473.853 124.942 475.573 126.614 476.613 128.852C476.986 129.628 478.133 128.948 477.773 128.174C476.64 125.756 474.707 123.866 472.253 122.802" fill="#D7781A"/>
<path d="M483.04 121.709C481.907 119.934 480.173 118.682 478.107 118.205C477.28 118.01 476.92 119.297 477.76 119.492C479.48 119.893 480.933 120.893 481.893 122.385C482.347 123.106 483.507 122.434 483.04 121.709" fill="#D7781A"/>
<path d="M487.133 115.301C486.2 113.618 484.48 112.573 482.56 112.461C481.707 112.412 481.707 113.745 482.56 113.794C484.013 113.88 485.28 114.712 485.987 115.977C486.4 116.728 487.547 116.053 487.133 115.301" fill="#D7781A"/>
<path d="M463.16 132.599C462.653 131.924 461.493 132.591 462.013 133.275C462.733 134.233 463.147 135.303 463.187 136.509C463.213 137.367 464.547 137.376 464.52 136.517C464.48 135.088 464.027 133.74 463.16 132.599" fill="#D7781A"/>
<path d="M453.271 644.295C453.231 644.099 453.199 643.904 453.173 643.711C453.199 643.906 453.231 644.101 453.271 644.295Z" fill="#1F2925"/>
<path d="M453.853 646.644L453.84 646.617L453.853 646.644Z" fill="#1F2925"/>
<path d="M453.785 646.512L453.731 646.4L453.785 646.512Z" fill="#1F2925"/>
<path d="M453.472 645.068C453.577 645.403 453.705 645.725 453.852 646.033C453.703 645.719 453.577 645.395 453.475 645.068H453.472Z" fill="#1F2925"/>
</svg>
